<?xml version="1.0" encoding="utf-8" standalone="no"?>
<!DOCTYPE svg PUBLIC "-//W3C//DTD SVG 1.1//EN"
  "http://www.w3.org/Graphics/SVG/1.1/DTD/svg11.dtd">
<svg height="720pt" version="1.1" viewBox="0 0 1152 720" width="1152pt" xmlns="http://www.w3.org/2000/svg" xmlns:xlink="http://www.w3.org/1999/xlink">
 <metadata>
  <rdf:RDF xmlns:cc="http://creativecommons.org/ns#" xmlns:dc="http://purl.org/dc/elements/1.1/" xmlns:rdf="http://www.w3.org/1999/02/22-rdf-syntax-ns#">
   <cc:Work>
    <dc:type rdf:resource="http://purl.org/dc/dcmitype/StillImage"/>
    <dc:date>2022-05-04T16:48:00.136605</dc:date>
    <dc:format>image/svg+xml</dc:format>
    <dc:creator>
     <cc:Agent>
      <dc:title>Matplotlib v3.4.3, https://matplotlib.org/</dc:title>
     </cc:Agent>
    </dc:creator>
   </cc:Work>
  </rdf:RDF>
 </metadata>
 <defs>
  <style type="text/css">*{stroke-linecap:butt;stroke-linejoin:round;}</style>
 </defs>
 <g id="figure_1">
  <g id="patch_1">
   <path d="M 0 720 
L 1152 720 
L 1152 0 
L 0 0 
z
" style="fill:#ffffff;"/>
  </g>
  <g id="axes_1">
   <g id="patch_2">
    <path d="M 144 640.8 
L 1036.8 640.8 
L 1036.8 86.4 
L 144 86.4 
z
" style="fill:#ffffff;"/>
   </g>
   <g id="matplotlib.axis_1">
    <g id="xtick_1">
     <g id="line2d_1">
      <path clip-path="url(#p3a22d773e1)" d="M 144 640.8 
L 144 86.4 
" style="fill:none;stroke:#b0b0b0;stroke-linecap:square;stroke-width:0.8;"/>
     </g>
     <g id="line2d_2">
      <defs>
       <path d="M 0 0 
L 0 3.5 
" id="md4ee005c33" style="stroke:#000000;stroke-width:0.8;"/>
      </defs>
      <g>
       <use style="stroke:#000000;stroke-width:0.8;" x="144" xlink:href="#md4ee005c33" y="640.8"/>
      </g>
     </g>
     <g id="text_1">
      <!-- 0 -->
      <g transform="translate(140.81875 655.398438)scale(0.1 -0.1)">
       <defs>
        <path d="M 2034 4250 
Q 1547 4250 1301 3770 
Q 1056 3291 1056 2328 
Q 1056 1369 1301 889 
Q 1547 409 2034 409 
Q 2525 409 2770 889 
Q 3016 1369 3016 2328 
Q 3016 3291 2770 3770 
Q 2525 4250 2034 4250 
z
M 2034 4750 
Q 2819 4750 3233 4129 
Q 3647 3509 3647 2328 
Q 3647 1150 3233 529 
Q 2819 -91 2034 -91 
Q 1250 -91 836 529 
Q 422 1150 422 2328 
Q 422 3509 836 4129 
Q 1250 4750 2034 4750 
z
" id="DejaVuSans-30" transform="scale(0.015625)"/>
       </defs>
       <use xlink:href="#DejaVuSans-30"/>
      </g>
     </g>
    </g>
    <g id="xtick_2">
     <g id="line2d_3">
      <path clip-path="url(#p3a22d773e1)" d="M 341.56146 640.8 
L 341.56146 86.4 
" style="fill:none;stroke:#b0b0b0;stroke-linecap:square;stroke-width:0.8;"/>
     </g>
     <g id="line2d_4">
      <g>
       <use style="stroke:#000000;stroke-width:0.8;" x="341.56146" xlink:href="#md4ee005c33" y="640.8"/>
      </g>
     </g>
     <g id="text_2">
      <!-- 20 -->
      <g transform="translate(335.19896 655.398438)scale(0.1 -0.1)">
       <defs>
        <path d="M 1228 531 
L 3431 531 
L 3431 0 
L 469 0 
L 469 531 
Q 828 903 1448 1529 
Q 2069 2156 2228 2338 
Q 2531 2678 2651 2914 
Q 2772 3150 2772 3378 
Q 2772 3750 2511 3984 
Q 2250 4219 1831 4219 
Q 1534 4219 1204 4116 
Q 875 4013 500 3803 
L 500 4441 
Q 881 4594 1212 4672 
Q 1544 4750 1819 4750 
Q 2544 4750 2975 4387 
Q 3406 4025 3406 3419 
Q 3406 3131 3298 2873 
Q 3191 2616 2906 2266 
Q 2828 2175 2409 1742 
Q 1991 1309 1228 531 
z
" id="DejaVuSans-32" transform="scale(0.015625)"/>
       </defs>
       <use xlink:href="#DejaVuSans-32"/>
       <use x="63.623047" xlink:href="#DejaVuSans-30"/>
      </g>
     </g>
    </g>
    <g id="xtick_3">
     <g id="line2d_5">
      <path clip-path="url(#p3a22d773e1)" d="M 539.12292 640.8 
L 539.12292 86.4 
" style="fill:none;stroke:#b0b0b0;stroke-linecap:square;stroke-width:0.8;"/>
     </g>
     <g id="line2d_6">
      <g>
       <use style="stroke:#000000;stroke-width:0.8;" x="539.12292" xlink:href="#md4ee005c33" y="640.8"/>
      </g>
     </g>
     <g id="text_3">
      <!-- 40 -->
      <g transform="translate(532.76042 655.398438)scale(0.1 -0.1)">
       <defs>
        <path d="M 2419 4116 
L 825 1625 
L 2419 1625 
L 2419 4116 
z
M 2253 4666 
L 3047 4666 
L 3047 1625 
L 3713 1625 
L 3713 1100 
L 3047 1100 
L 3047 0 
L 2419 0 
L 2419 1100 
L 313 1100 
L 313 1709 
L 2253 4666 
z
" id="DejaVuSans-34" transform="scale(0.015625)"/>
       </defs>
       <use xlink:href="#DejaVuSans-34"/>
       <use x="63.623047" xlink:href="#DejaVuSans-30"/>
      </g>
     </g>
    </g>
    <g id="xtick_4">
     <g id="line2d_7">
      <path clip-path="url(#p3a22d773e1)" d="M 736.68438 640.8 
L 736.68438 86.4 
" style="fill:none;stroke:#b0b0b0;stroke-linecap:square;stroke-width:0.8;"/>
     </g>
     <g id="line2d_8">
      <g>
       <use style="stroke:#000000;stroke-width:0.8;" x="736.68438" xlink:href="#md4ee005c33" y="640.8"/>
      </g>
     </g>
     <g id="text_4">
      <!-- 60 -->
      <g transform="translate(730.32188 655.398438)scale(0.1 -0.1)">
       <defs>
        <path d="M 2113 2584 
Q 1688 2584 1439 2293 
Q 1191 2003 1191 1497 
Q 1191 994 1439 701 
Q 1688 409 2113 409 
Q 2538 409 2786 701 
Q 3034 994 3034 1497 
Q 3034 2003 2786 2293 
Q 2538 2584 2113 2584 
z
M 3366 4563 
L 3366 3988 
Q 3128 4100 2886 4159 
Q 2644 4219 2406 4219 
Q 1781 4219 1451 3797 
Q 1122 3375 1075 2522 
Q 1259 2794 1537 2939 
Q 1816 3084 2150 3084 
Q 2853 3084 3261 2657 
Q 3669 2231 3669 1497 
Q 3669 778 3244 343 
Q 2819 -91 2113 -91 
Q 1303 -91 875 529 
Q 447 1150 447 2328 
Q 447 3434 972 4092 
Q 1497 4750 2381 4750 
Q 2619 4750 2861 4703 
Q 3103 4656 3366 4563 
z
" id="DejaVuSans-36" transform="scale(0.015625)"/>
       </defs>
       <use xlink:href="#DejaVuSans-36"/>
       <use x="63.623047" xlink:href="#DejaVuSans-30"/>
      </g>
     </g>
    </g>
    <g id="xtick_5">
     <g id="line2d_9">
      <path clip-path="url(#p3a22d773e1)" d="M 934.24584 640.8 
L 934.24584 86.4 
" style="fill:none;stroke:#b0b0b0;stroke-linecap:square;stroke-width:0.8;"/>
     </g>
     <g id="line2d_10">
      <g>
       <use style="stroke:#000000;stroke-width:0.8;" x="934.24584" xlink:href="#md4ee005c33" y="640.8"/>
      </g>
     </g>
     <g id="text_5">
      <!-- 80 -->
      <g transform="translate(927.88334 655.398438)scale(0.1 -0.1)">
       <defs>
        <path d="M 2034 2216 
Q 1584 2216 1326 1975 
Q 1069 1734 1069 1313 
Q 1069 891 1326 650 
Q 1584 409 2034 409 
Q 2484 409 2743 651 
Q 3003 894 3003 1313 
Q 3003 1734 2745 1975 
Q 2488 2216 2034 2216 
z
M 1403 2484 
Q 997 2584 770 2862 
Q 544 3141 544 3541 
Q 544 4100 942 4425 
Q 1341 4750 2034 4750 
Q 2731 4750 3128 4425 
Q 3525 4100 3525 3541 
Q 3525 3141 3298 2862 
Q 3072 2584 2669 2484 
Q 3125 2378 3379 2068 
Q 3634 1759 3634 1313 
Q 3634 634 3220 271 
Q 2806 -91 2034 -91 
Q 1263 -91 848 271 
Q 434 634 434 1313 
Q 434 1759 690 2068 
Q 947 2378 1403 2484 
z
M 1172 3481 
Q 1172 3119 1398 2916 
Q 1625 2713 2034 2713 
Q 2441 2713 2670 2916 
Q 2900 3119 2900 3481 
Q 2900 3844 2670 4047 
Q 2441 4250 2034 4250 
Q 1625 4250 1398 4047 
Q 1172 3844 1172 3481 
z
" id="DejaVuSans-38" transform="scale(0.015625)"/>
       </defs>
       <use xlink:href="#DejaVuSans-38"/>
       <use x="63.623047" xlink:href="#DejaVuSans-30"/>
      </g>
     </g>
    </g>
    <g id="xtick_6">
     <g id="line2d_11">
      <path clip-path="url(#p3a22d773e1)" d="M 193.390365 640.8 
L 193.390365 86.4 
" style="fill:none;stroke:#b0b0b0;stroke-dasharray:0.8,1.32;stroke-dashoffset:0;stroke-width:0.8;"/>
     </g>
     <g id="line2d_12">
      <defs>
       <path d="M 0 0 
L 0 2 
" id="md3f8cdf0d9" style="stroke:#000000;stroke-width:0.6;"/>
      </defs>
      <g>
       <use style="stroke:#000000;stroke-width:0.6;" x="193.390365" xlink:href="#md3f8cdf0d9" y="640.8"/>
      </g>
     </g>
    </g>
    <g id="xtick_7">
     <g id="line2d_13">
      <path clip-path="url(#p3a22d773e1)" d="M 242.78073 640.8 
L 242.78073 86.4 
" style="fill:none;stroke:#b0b0b0;stroke-dasharray:0.8,1.32;stroke-dashoffset:0;stroke-width:0.8;"/>
     </g>
     <g id="line2d_14">
      <g>
       <use style="stroke:#000000;stroke-width:0.6;" x="242.78073" xlink:href="#md3f8cdf0d9" y="640.8"/>
      </g>
     </g>
    </g>
    <g id="xtick_8">
     <g id="line2d_15">
      <path clip-path="url(#p3a22d773e1)" d="M 292.171095 640.8 
L 292.171095 86.4 
" style="fill:none;stroke:#b0b0b0;stroke-dasharray:0.8,1.32;stroke-dashoffset:0;stroke-width:0.8;"/>
     </g>
     <g id="line2d_16">
      <g>
       <use style="stroke:#000000;stroke-width:0.6;" x="292.171095" xlink:href="#md3f8cdf0d9" y="640.8"/>
      </g>
     </g>
    </g>
    <g id="xtick_9">
     <g id="line2d_17">
      <path clip-path="url(#p3a22d773e1)" d="M 390.951825 640.8 
L 390.951825 86.4 
" style="fill:none;stroke:#b0b0b0;stroke-dasharray:0.8,1.32;stroke-dashoffset:0;stroke-width:0.8;"/>
     </g>
     <g id="line2d_18">
      <g>
       <use style="stroke:#000000;stroke-width:0.6;" x="390.951825" xlink:href="#md3f8cdf0d9" y="640.8"/>
      </g>
     </g>
    </g>
    <g id="xtick_10">
     <g id="line2d_19">
      <path clip-path="url(#p3a22d773e1)" d="M 440.34219 640.8 
L 440.34219 86.4 
" style="fill:none;stroke:#b0b0b0;stroke-dasharray:0.8,1.32;stroke-dashoffset:0;stroke-width:0.8;"/>
     </g>
     <g id="line2d_20">
      <g>
       <use style="stroke:#000000;stroke-width:0.6;" x="440.34219" xlink:href="#md3f8cdf0d9" y="640.8"/>
      </g>
     </g>
    </g>
    <g id="xtick_11">
     <g id="line2d_21">
      <path clip-path="url(#p3a22d773e1)" d="M 489.732555 640.8 
L 489.732555 86.4 
" style="fill:none;stroke:#b0b0b0;stroke-dasharray:0.8,1.32;stroke-dashoffset:0;stroke-width:0.8;"/>
     </g>
     <g id="line2d_22">
      <g>
       <use style="stroke:#000000;stroke-width:0.6;" x="489.732555" xlink:href="#md3f8cdf0d9" y="640.8"/>
      </g>
     </g>
    </g>
    <g id="xtick_12">
     <g id="line2d_23">
      <path clip-path="url(#p3a22d773e1)" d="M 588.513285 640.8 
L 588.513285 86.4 
" style="fill:none;stroke:#b0b0b0;stroke-dasharray:0.8,1.32;stroke-dashoffset:0;stroke-width:0.8;"/>
     </g>
     <g id="line2d_24">
      <g>
       <use style="stroke:#000000;stroke-width:0.6;" x="588.513285" xlink:href="#md3f8cdf0d9" y="640.8"/>
      </g>
     </g>
    </g>
    <g id="xtick_13">
     <g id="line2d_25">
      <path clip-path="url(#p3a22d773e1)" d="M 637.90365 640.8 
L 637.90365 86.4 
" style="fill:none;stroke:#b0b0b0;stroke-dasharray:0.8,1.32;stroke-dashoffset:0;stroke-width:0.8;"/>
     </g>
     <g id="line2d_26">
      <g>
       <use style="stroke:#000000;stroke-width:0.6;" x="637.90365" xlink:href="#md3f8cdf0d9" y="640.8"/>
      </g>
     </g>
    </g>
    <g id="xtick_14">
     <g id="line2d_27">
      <path clip-path="url(#p3a22d773e1)" d="M 687.294015 640.8 
L 687.294015 86.4 
" style="fill:none;stroke:#b0b0b0;stroke-dasharray:0.8,1.32;stroke-dashoffset:0;stroke-width:0.8;"/>
     </g>
     <g id="line2d_28">
      <g>
       <use style="stroke:#000000;stroke-width:0.6;" x="687.294015" xlink:href="#md3f8cdf0d9" y="640.8"/>
      </g>
     </g>
    </g>
    <g id="xtick_15">
     <g id="line2d_29">
      <path clip-path="url(#p3a22d773e1)" d="M 786.074745 640.8 
L 786.074745 86.4 
" style="fill:none;stroke:#b0b0b0;stroke-dasharray:0.8,1.32;stroke-dashoffset:0;stroke-width:0.8;"/>
     </g>
     <g id="line2d_30">
      <g>
       <use style="stroke:#000000;stroke-width:0.6;" x="786.074745" xlink:href="#md3f8cdf0d9" y="640.8"/>
      </g>
     </g>
    </g>
    <g id="xtick_16">
     <g id="line2d_31">
      <path clip-path="url(#p3a22d773e1)" d="M 835.46511 640.8 
L 835.46511 86.4 
" style="fill:none;stroke:#b0b0b0;stroke-dasharray:0.8,1.32;stroke-dashoffset:0;stroke-width:0.8;"/>
     </g>
     <g id="line2d_32">
      <g>
       <use style="stroke:#000000;stroke-width:0.6;" x="835.46511" xlink:href="#md3f8cdf0d9" y="640.8"/>
      </g>
     </g>
    </g>
    <g id="xtick_17">
     <g id="line2d_33">
      <path clip-path="url(#p3a22d773e1)" d="M 884.855475 640.8 
L 884.855475 86.4 
" style="fill:none;stroke:#b0b0b0;stroke-dasharray:0.8,1.32;stroke-dashoffset:0;stroke-width:0.8;"/>
     </g>
     <g id="line2d_34">
      <g>
       <use style="stroke:#000000;stroke-width:0.6;" x="884.855475" xlink:href="#md3f8cdf0d9" y="640.8"/>
      </g>
     </g>
    </g>
    <g id="xtick_18">
     <g id="line2d_35">
      <path clip-path="url(#p3a22d773e1)" d="M 983.636205 640.8 
L 983.636205 86.4 
" style="fill:none;stroke:#b0b0b0;stroke-dasharray:0.8,1.32;stroke-dashoffset:0;stroke-width:0.8;"/>
     </g>
     <g id="line2d_36">
      <g>
       <use style="stroke:#000000;stroke-width:0.6;" x="983.636205" xlink:href="#md3f8cdf0d9" y="640.8"/>
      </g>
     </g>
    </g>
    <g id="xtick_19">
     <g id="line2d_37">
      <path clip-path="url(#p3a22d773e1)" d="M 1033.02657 640.8 
L 1033.02657 86.4 
" style="fill:none;stroke:#b0b0b0;stroke-dasharray:0.8,1.32;stroke-dashoffset:0;stroke-width:0.8;"/>
     </g>
     <g id="line2d_38">
      <g>
       <use style="stroke:#000000;stroke-width:0.6;" x="1033.02657" xlink:href="#md3f8cdf0d9" y="640.8"/>
      </g>
     </g>
    </g>
    <g id="text_6">
     <!-- time, sec -->
     <g transform="translate(567.495312 669.076563)scale(0.1 -0.1)">
      <defs>
       <path d="M 1172 4494 
L 1172 3500 
L 2356 3500 
L 2356 3053 
L 1172 3053 
L 1172 1153 
Q 1172 725 1289 603 
Q 1406 481 1766 481 
L 2356 481 
L 2356 0 
L 1766 0 
Q 1100 0 847 248 
Q 594 497 594 1153 
L 594 3053 
L 172 3053 
L 172 3500 
L 594 3500 
L 594 4494 
L 1172 4494 
z
" id="DejaVuSans-74" transform="scale(0.015625)"/>
       <path d="M 603 3500 
L 1178 3500 
L 1178 0 
L 603 0 
L 603 3500 
z
M 603 4863 
L 1178 4863 
L 1178 4134 
L 603 4134 
L 603 4863 
z
" id="DejaVuSans-69" transform="scale(0.015625)"/>
       <path d="M 3328 2828 
Q 3544 3216 3844 3400 
Q 4144 3584 4550 3584 
Q 5097 3584 5394 3201 
Q 5691 2819 5691 2113 
L 5691 0 
L 5113 0 
L 5113 2094 
Q 5113 2597 4934 2840 
Q 4756 3084 4391 3084 
Q 3944 3084 3684 2787 
Q 3425 2491 3425 1978 
L 3425 0 
L 2847 0 
L 2847 2094 
Q 2847 2600 2669 2842 
Q 2491 3084 2119 3084 
Q 1678 3084 1418 2786 
Q 1159 2488 1159 1978 
L 1159 0 
L 581 0 
L 581 3500 
L 1159 3500 
L 1159 2956 
Q 1356 3278 1631 3431 
Q 1906 3584 2284 3584 
Q 2666 3584 2933 3390 
Q 3200 3197 3328 2828 
z
" id="DejaVuSans-6d" transform="scale(0.015625)"/>
       <path d="M 3597 1894 
L 3597 1613 
L 953 1613 
Q 991 1019 1311 708 
Q 1631 397 2203 397 
Q 2534 397 2845 478 
Q 3156 559 3463 722 
L 3463 178 
Q 3153 47 2828 -22 
Q 2503 -91 2169 -91 
Q 1331 -91 842 396 
Q 353 884 353 1716 
Q 353 2575 817 3079 
Q 1281 3584 2069 3584 
Q 2775 3584 3186 3129 
Q 3597 2675 3597 1894 
z
M 3022 2063 
Q 3016 2534 2758 2815 
Q 2500 3097 2075 3097 
Q 1594 3097 1305 2825 
Q 1016 2553 972 2059 
L 3022 2063 
z
" id="DejaVuSans-65" transform="scale(0.015625)"/>
       <path d="M 750 794 
L 1409 794 
L 1409 256 
L 897 -744 
L 494 -744 
L 750 256 
L 750 794 
z
" id="DejaVuSans-2c" transform="scale(0.015625)"/>
       <path id="DejaVuSans-20" transform="scale(0.015625)"/>
       <path d="M 2834 3397 
L 2834 2853 
Q 2591 2978 2328 3040 
Q 2066 3103 1784 3103 
Q 1356 3103 1142 2972 
Q 928 2841 928 2578 
Q 928 2378 1081 2264 
Q 1234 2150 1697 2047 
L 1894 2003 
Q 2506 1872 2764 1633 
Q 3022 1394 3022 966 
Q 3022 478 2636 193 
Q 2250 -91 1575 -91 
Q 1294 -91 989 -36 
Q 684 19 347 128 
L 347 722 
Q 666 556 975 473 
Q 1284 391 1588 391 
Q 1994 391 2212 530 
Q 2431 669 2431 922 
Q 2431 1156 2273 1281 
Q 2116 1406 1581 1522 
L 1381 1569 
Q 847 1681 609 1914 
Q 372 2147 372 2553 
Q 372 3047 722 3315 
Q 1072 3584 1716 3584 
Q 2034 3584 2315 3537 
Q 2597 3491 2834 3397 
z
" id="DejaVuSans-73" transform="scale(0.015625)"/>
       <path d="M 3122 3366 
L 3122 2828 
Q 2878 2963 2633 3030 
Q 2388 3097 2138 3097 
Q 1578 3097 1268 2742 
Q 959 2388 959 1747 
Q 959 1106 1268 751 
Q 1578 397 2138 397 
Q 2388 397 2633 464 
Q 2878 531 3122 666 
L 3122 134 
Q 2881 22 2623 -34 
Q 2366 -91 2075 -91 
Q 1284 -91 818 406 
Q 353 903 353 1747 
Q 353 2603 823 3093 
Q 1294 3584 2113 3584 
Q 2378 3584 2631 3529 
Q 2884 3475 3122 3366 
z
" id="DejaVuSans-63" transform="scale(0.015625)"/>
      </defs>
      <use xlink:href="#DejaVuSans-74"/>
      <use x="39.208984" xlink:href="#DejaVuSans-69"/>
      <use x="66.992188" xlink:href="#DejaVuSans-6d"/>
      <use x="164.404297" xlink:href="#DejaVuSans-65"/>
      <use x="225.927734" xlink:href="#DejaVuSans-2c"/>
      <use x="257.714844" xlink:href="#DejaVuSans-20"/>
      <use x="289.501953" xlink:href="#DejaVuSans-73"/>
      <use x="341.601562" xlink:href="#DejaVuSans-65"/>
      <use x="403.125" xlink:href="#DejaVuSans-63"/>
     </g>
    </g>
   </g>
   <g id="matplotlib.axis_2">
    <g id="ytick_1">
     <g id="line2d_39">
      <path clip-path="url(#p3a22d773e1)" d="M 144 640.8 
L 1036.8 640.8 
" style="fill:none;stroke:#b0b0b0;stroke-linecap:square;stroke-width:0.8;"/>
     </g>
     <g id="line2d_40">
      <defs>
       <path d="M 0 0 
L -3.5 0 
" id="m7d3d0504b8" style="stroke:#000000;stroke-width:0.8;"/>
      </defs>
      <g>
       <use style="stroke:#000000;stroke-width:0.8;" x="144" xlink:href="#m7d3d0504b8" y="640.8"/>
      </g>
     </g>
     <g id="text_7">
      <!-- 0.0 -->
      <g transform="translate(121.096875 644.599219)scale(0.1 -0.1)">
       <defs>
        <path d="M 684 794 
L 1344 794 
L 1344 0 
L 684 0 
L 684 794 
z
" id="DejaVuSans-2e" transform="scale(0.015625)"/>
       </defs>
       <use xlink:href="#DejaVuSans-30"/>
       <use x="63.623047" xlink:href="#DejaVuSans-2e"/>
       <use x="95.410156" xlink:href="#DejaVuSans-30"/>
      </g>
     </g>
    </g>
    <g id="ytick_2">
     <g id="line2d_41">
      <path clip-path="url(#p3a22d773e1)" d="M 144 561.973021 
L 1036.8 561.973021 
" style="fill:none;stroke:#b0b0b0;stroke-linecap:square;stroke-width:0.8;"/>
     </g>
     <g id="line2d_42">
      <g>
       <use style="stroke:#000000;stroke-width:0.8;" x="144" xlink:href="#m7d3d0504b8" y="561.973021"/>
      </g>
     </g>
     <g id="text_8">
      <!-- 0.5 -->
      <g transform="translate(121.096875 565.772239)scale(0.1 -0.1)">
       <defs>
        <path d="M 691 4666 
L 3169 4666 
L 3169 4134 
L 1269 4134 
L 1269 2991 
Q 1406 3038 1543 3061 
Q 1681 3084 1819 3084 
Q 2600 3084 3056 2656 
Q 3513 2228 3513 1497 
Q 3513 744 3044 326 
Q 2575 -91 1722 -91 
Q 1428 -91 1123 -41 
Q 819 9 494 109 
L 494 744 
Q 775 591 1075 516 
Q 1375 441 1709 441 
Q 2250 441 2565 725 
Q 2881 1009 2881 1497 
Q 2881 1984 2565 2268 
Q 2250 2553 1709 2553 
Q 1456 2553 1204 2497 
Q 953 2441 691 2322 
L 691 4666 
z
" id="DejaVuSans-35" transform="scale(0.015625)"/>
       </defs>
       <use xlink:href="#DejaVuSans-30"/>
       <use x="63.623047" xlink:href="#DejaVuSans-2e"/>
       <use x="95.410156" xlink:href="#DejaVuSans-35"/>
      </g>
     </g>
    </g>
    <g id="ytick_3">
     <g id="line2d_43">
      <path clip-path="url(#p3a22d773e1)" d="M 144 483.146041 
L 1036.8 483.146041 
" style="fill:none;stroke:#b0b0b0;stroke-linecap:square;stroke-width:0.8;"/>
     </g>
     <g id="line2d_44">
      <g>
       <use style="stroke:#000000;stroke-width:0.8;" x="144" xlink:href="#m7d3d0504b8" y="483.146041"/>
      </g>
     </g>
     <g id="text_9">
      <!-- 1.0 -->
      <g transform="translate(121.096875 486.94526)scale(0.1 -0.1)">
       <defs>
        <path d="M 794 531 
L 1825 531 
L 1825 4091 
L 703 3866 
L 703 4441 
L 1819 4666 
L 2450 4666 
L 2450 531 
L 3481 531 
L 3481 0 
L 794 0 
L 794 531 
z
" id="DejaVuSans-31" transform="scale(0.015625)"/>
       </defs>
       <use xlink:href="#DejaVuSans-31"/>
       <use x="63.623047" xlink:href="#DejaVuSans-2e"/>
       <use x="95.410156" xlink:href="#DejaVuSans-30"/>
      </g>
     </g>
    </g>
    <g id="ytick_4">
     <g id="line2d_45">
      <path clip-path="url(#p3a22d773e1)" d="M 144 404.319062 
L 1036.8 404.319062 
" style="fill:none;stroke:#b0b0b0;stroke-linecap:square;stroke-width:0.8;"/>
     </g>
     <g id="line2d_46">
      <g>
       <use style="stroke:#000000;stroke-width:0.8;" x="144" xlink:href="#m7d3d0504b8" y="404.319062"/>
      </g>
     </g>
     <g id="text_10">
      <!-- 1.5 -->
      <g transform="translate(121.096875 408.11828)scale(0.1 -0.1)">
       <use xlink:href="#DejaVuSans-31"/>
       <use x="63.623047" xlink:href="#DejaVuSans-2e"/>
       <use x="95.410156" xlink:href="#DejaVuSans-35"/>
      </g>
     </g>
    </g>
    <g id="ytick_5">
     <g id="line2d_47">
      <path clip-path="url(#p3a22d773e1)" d="M 144 325.492082 
L 1036.8 325.492082 
" style="fill:none;stroke:#b0b0b0;stroke-linecap:square;stroke-width:0.8;"/>
     </g>
     <g id="line2d_48">
      <g>
       <use style="stroke:#000000;stroke-width:0.8;" x="144" xlink:href="#m7d3d0504b8" y="325.492082"/>
      </g>
     </g>
     <g id="text_11">
      <!-- 2.0 -->
      <g transform="translate(121.096875 329.291301)scale(0.1 -0.1)">
       <use xlink:href="#DejaVuSans-32"/>
       <use x="63.623047" xlink:href="#DejaVuSans-2e"/>
       <use x="95.410156" xlink:href="#DejaVuSans-30"/>
      </g>
     </g>
    </g>
    <g id="ytick_6">
     <g id="line2d_49">
      <path clip-path="url(#p3a22d773e1)" d="M 144 246.665103 
L 1036.8 246.665103 
" style="fill:none;stroke:#b0b0b0;stroke-linecap:square;stroke-width:0.8;"/>
     </g>
     <g id="line2d_50">
      <g>
       <use style="stroke:#000000;stroke-width:0.8;" x="144" xlink:href="#m7d3d0504b8" y="246.665103"/>
      </g>
     </g>
     <g id="text_12">
      <!-- 2.5 -->
      <g transform="translate(121.096875 250.464321)scale(0.1 -0.1)">
       <use xlink:href="#DejaVuSans-32"/>
       <use x="63.623047" xlink:href="#DejaVuSans-2e"/>
       <use x="95.410156" xlink:href="#DejaVuSans-35"/>
      </g>
     </g>
    </g>
    <g id="ytick_7">
     <g id="line2d_51">
      <path clip-path="url(#p3a22d773e1)" d="M 144 167.838123 
L 1036.8 167.838123 
" style="fill:none;stroke:#b0b0b0;stroke-linecap:square;stroke-width:0.8;"/>
     </g>
     <g id="line2d_52">
      <g>
       <use style="stroke:#000000;stroke-width:0.8;" x="144" xlink:href="#m7d3d0504b8" y="167.838123"/>
      </g>
     </g>
     <g id="text_13">
      <!-- 3.0 -->
      <g transform="translate(121.096875 171.637342)scale(0.1 -0.1)">
       <defs>
        <path d="M 2597 2516 
Q 3050 2419 3304 2112 
Q 3559 1806 3559 1356 
Q 3559 666 3084 287 
Q 2609 -91 1734 -91 
Q 1441 -91 1130 -33 
Q 819 25 488 141 
L 488 750 
Q 750 597 1062 519 
Q 1375 441 1716 441 
Q 2309 441 2620 675 
Q 2931 909 2931 1356 
Q 2931 1769 2642 2001 
Q 2353 2234 1838 2234 
L 1294 2234 
L 1294 2753 
L 1863 2753 
Q 2328 2753 2575 2939 
Q 2822 3125 2822 3475 
Q 2822 3834 2567 4026 
Q 2313 4219 1838 4219 
Q 1578 4219 1281 4162 
Q 984 4106 628 3988 
L 628 4550 
Q 988 4650 1302 4700 
Q 1616 4750 1894 4750 
Q 2613 4750 3031 4423 
Q 3450 4097 3450 3541 
Q 3450 3153 3228 2886 
Q 3006 2619 2597 2516 
z
" id="DejaVuSans-33" transform="scale(0.015625)"/>
       </defs>
       <use xlink:href="#DejaVuSans-33"/>
       <use x="63.623047" xlink:href="#DejaVuSans-2e"/>
       <use x="95.410156" xlink:href="#DejaVuSans-30"/>
      </g>
     </g>
    </g>
    <g id="ytick_8">
     <g id="line2d_53">
      <path clip-path="url(#p3a22d773e1)" d="M 144 89.011144 
L 1036.8 89.011144 
" style="fill:none;stroke:#b0b0b0;stroke-linecap:square;stroke-width:0.8;"/>
     </g>
     <g id="line2d_54">
      <g>
       <use style="stroke:#000000;stroke-width:0.8;" x="144" xlink:href="#m7d3d0504b8" y="89.011144"/>
      </g>
     </g>
     <g id="text_14">
      <!-- 3.5 -->
      <g transform="translate(121.096875 92.810362)scale(0.1 -0.1)">
       <use xlink:href="#DejaVuSans-33"/>
       <use x="63.623047" xlink:href="#DejaVuSans-2e"/>
       <use x="95.410156" xlink:href="#DejaVuSans-35"/>
      </g>
     </g>
    </g>
    <g id="ytick_9">
     <g id="line2d_55">
      <path clip-path="url(#p3a22d773e1)" d="M 144 625.034604 
L 1036.8 625.034604 
" style="fill:none;stroke:#b0b0b0;stroke-dasharray:0.8,1.32;stroke-dashoffset:0;stroke-width:0.8;"/>
     </g>
     <g id="line2d_56">
      <defs>
       <path d="M 0 0 
L -2 0 
" id="mba3a2a3f59" style="stroke:#000000;stroke-width:0.6;"/>
      </defs>
      <g>
       <use style="stroke:#000000;stroke-width:0.6;" x="144" xlink:href="#mba3a2a3f59" y="625.034604"/>
      </g>
     </g>
    </g>
    <g id="ytick_10">
     <g id="line2d_57">
      <path clip-path="url(#p3a22d773e1)" d="M 144 609.269208 
L 1036.8 609.269208 
" style="fill:none;stroke:#b0b0b0;stroke-dasharray:0.8,1.32;stroke-dashoffset:0;stroke-width:0.8;"/>
     </g>
     <g id="line2d_58">
      <g>
       <use style="stroke:#000000;stroke-width:0.6;" x="144" xlink:href="#mba3a2a3f59" y="609.269208"/>
      </g>
     </g>
    </g>
    <g id="ytick_11">
     <g id="line2d_59">
      <path clip-path="url(#p3a22d773e1)" d="M 144 593.503812 
L 1036.8 593.503812 
" style="fill:none;stroke:#b0b0b0;stroke-dasharray:0.8,1.32;stroke-dashoffset:0;stroke-width:0.8;"/>
     </g>
     <g id="line2d_60">
      <g>
       <use style="stroke:#000000;stroke-width:0.6;" x="144" xlink:href="#mba3a2a3f59" y="593.503812"/>
      </g>
     </g>
    </g>
    <g id="ytick_12">
     <g id="line2d_61">
      <path clip-path="url(#p3a22d773e1)" d="M 144 577.738416 
L 1036.8 577.738416 
" style="fill:none;stroke:#b0b0b0;stroke-dasharray:0.8,1.32;stroke-dashoffset:0;stroke-width:0.8;"/>
     </g>
     <g id="line2d_62">
      <g>
       <use style="stroke:#000000;stroke-width:0.6;" x="144" xlink:href="#mba3a2a3f59" y="577.738416"/>
      </g>
     </g>
    </g>
    <g id="ytick_13">
     <g id="line2d_63">
      <path clip-path="url(#p3a22d773e1)" d="M 144 546.207625 
L 1036.8 546.207625 
" style="fill:none;stroke:#b0b0b0;stroke-dasharray:0.8,1.32;stroke-dashoffset:0;stroke-width:0.8;"/>
     </g>
     <g id="line2d_64">
      <g>
       <use style="stroke:#000000;stroke-width:0.6;" x="144" xlink:href="#mba3a2a3f59" y="546.207625"/>
      </g>
     </g>
    </g>
    <g id="ytick_14">
     <g id="line2d_65">
      <path clip-path="url(#p3a22d773e1)" d="M 144 530.442229 
L 1036.8 530.442229 
" style="fill:none;stroke:#b0b0b0;stroke-dasharray:0.8,1.32;stroke-dashoffset:0;stroke-width:0.8;"/>
     </g>
     <g id="line2d_66">
      <g>
       <use style="stroke:#000000;stroke-width:0.6;" x="144" xlink:href="#mba3a2a3f59" y="530.442229"/>
      </g>
     </g>
    </g>
    <g id="ytick_15">
     <g id="line2d_67">
      <path clip-path="url(#p3a22d773e1)" d="M 144 514.676833 
L 1036.8 514.676833 
" style="fill:none;stroke:#b0b0b0;stroke-dasharray:0.8,1.32;stroke-dashoffset:0;stroke-width:0.8;"/>
     </g>
     <g id="line2d_68">
      <g>
       <use style="stroke:#000000;stroke-width:0.6;" x="144" xlink:href="#mba3a2a3f59" y="514.676833"/>
      </g>
     </g>
    </g>
    <g id="ytick_16">
     <g id="line2d_69">
      <path clip-path="url(#p3a22d773e1)" d="M 144 498.911437 
L 1036.8 498.911437 
" style="fill:none;stroke:#b0b0b0;stroke-dasharray:0.8,1.32;stroke-dashoffset:0;stroke-width:0.8;"/>
     </g>
     <g id="line2d_70">
      <g>
       <use style="stroke:#000000;stroke-width:0.6;" x="144" xlink:href="#mba3a2a3f59" y="498.911437"/>
      </g>
     </g>
    </g>
    <g id="ytick_17">
     <g id="line2d_71">
      <path clip-path="url(#p3a22d773e1)" d="M 144 467.380645 
L 1036.8 467.380645 
" style="fill:none;stroke:#b0b0b0;stroke-dasharray:0.8,1.32;stroke-dashoffset:0;stroke-width:0.8;"/>
     </g>
     <g id="line2d_72">
      <g>
       <use style="stroke:#000000;stroke-width:0.6;" x="144" xlink:href="#mba3a2a3f59" y="467.380645"/>
      </g>
     </g>
    </g>
    <g id="ytick_18">
     <g id="line2d_73">
      <path clip-path="url(#p3a22d773e1)" d="M 144 451.615249 
L 1036.8 451.615249 
" style="fill:none;stroke:#b0b0b0;stroke-dasharray:0.8,1.32;stroke-dashoffset:0;stroke-width:0.8;"/>
     </g>
     <g id="line2d_74">
      <g>
       <use style="stroke:#000000;stroke-width:0.6;" x="144" xlink:href="#mba3a2a3f59" y="451.615249"/>
      </g>
     </g>
    </g>
    <g id="ytick_19">
     <g id="line2d_75">
      <path clip-path="url(#p3a22d773e1)" d="M 144 435.849853 
L 1036.8 435.849853 
" style="fill:none;stroke:#b0b0b0;stroke-dasharray:0.8,1.32;stroke-dashoffset:0;stroke-width:0.8;"/>
     </g>
     <g id="line2d_76">
      <g>
       <use style="stroke:#000000;stroke-width:0.6;" x="144" xlink:href="#mba3a2a3f59" y="435.849853"/>
      </g>
     </g>
    </g>
    <g id="ytick_20">
     <g id="line2d_77">
      <path clip-path="url(#p3a22d773e1)" d="M 144 420.084457 
L 1036.8 420.084457 
" style="fill:none;stroke:#b0b0b0;stroke-dasharray:0.8,1.32;stroke-dashoffset:0;stroke-width:0.8;"/>
     </g>
     <g id="line2d_78">
      <g>
       <use style="stroke:#000000;stroke-width:0.6;" x="144" xlink:href="#mba3a2a3f59" y="420.084457"/>
      </g>
     </g>
    </g>
    <g id="ytick_21">
     <g id="line2d_79">
      <path clip-path="url(#p3a22d773e1)" d="M 144 388.553666 
L 1036.8 388.553666 
" style="fill:none;stroke:#b0b0b0;stroke-dasharray:0.8,1.32;stroke-dashoffset:0;stroke-width:0.8;"/>
     </g>
     <g id="line2d_80">
      <g>
       <use style="stroke:#000000;stroke-width:0.6;" x="144" xlink:href="#mba3a2a3f59" y="388.553666"/>
      </g>
     </g>
    </g>
    <g id="ytick_22">
     <g id="line2d_81">
      <path clip-path="url(#p3a22d773e1)" d="M 144 372.78827 
L 1036.8 372.78827 
" style="fill:none;stroke:#b0b0b0;stroke-dasharray:0.8,1.32;stroke-dashoffset:0;stroke-width:0.8;"/>
     </g>
     <g id="line2d_82">
      <g>
       <use style="stroke:#000000;stroke-width:0.6;" x="144" xlink:href="#mba3a2a3f59" y="372.78827"/>
      </g>
     </g>
    </g>
    <g id="ytick_23">
     <g id="line2d_83">
      <path clip-path="url(#p3a22d773e1)" d="M 144 357.022874 
L 1036.8 357.022874 
" style="fill:none;stroke:#b0b0b0;stroke-dasharray:0.8,1.32;stroke-dashoffset:0;stroke-width:0.8;"/>
     </g>
     <g id="line2d_84">
      <g>
       <use style="stroke:#000000;stroke-width:0.6;" x="144" xlink:href="#mba3a2a3f59" y="357.022874"/>
      </g>
     </g>
    </g>
    <g id="ytick_24">
     <g id="line2d_85">
      <path clip-path="url(#p3a22d773e1)" d="M 144 341.257478 
L 1036.8 341.257478 
" style="fill:none;stroke:#b0b0b0;stroke-dasharray:0.8,1.32;stroke-dashoffset:0;stroke-width:0.8;"/>
     </g>
     <g id="line2d_86">
      <g>
       <use style="stroke:#000000;stroke-width:0.6;" x="144" xlink:href="#mba3a2a3f59" y="341.257478"/>
      </g>
     </g>
    </g>
    <g id="ytick_25">
     <g id="line2d_87">
      <path clip-path="url(#p3a22d773e1)" d="M 144 309.726686 
L 1036.8 309.726686 
" style="fill:none;stroke:#b0b0b0;stroke-dasharray:0.8,1.32;stroke-dashoffset:0;stroke-width:0.8;"/>
     </g>
     <g id="line2d_88">
      <g>
       <use style="stroke:#000000;stroke-width:0.6;" x="144" xlink:href="#mba3a2a3f59" y="309.726686"/>
      </g>
     </g>
    </g>
    <g id="ytick_26">
     <g id="line2d_89">
      <path clip-path="url(#p3a22d773e1)" d="M 144 293.96129 
L 1036.8 293.96129 
" style="fill:none;stroke:#b0b0b0;stroke-dasharray:0.8,1.32;stroke-dashoffset:0;stroke-width:0.8;"/>
     </g>
     <g id="line2d_90">
      <g>
       <use style="stroke:#000000;stroke-width:0.6;" x="144" xlink:href="#mba3a2a3f59" y="293.96129"/>
      </g>
     </g>
    </g>
    <g id="ytick_27">
     <g id="line2d_91">
      <path clip-path="url(#p3a22d773e1)" d="M 144 278.195894 
L 1036.8 278.195894 
" style="fill:none;stroke:#b0b0b0;stroke-dasharray:0.8,1.32;stroke-dashoffset:0;stroke-width:0.8;"/>
     </g>
     <g id="line2d_92">
      <g>
       <use style="stroke:#000000;stroke-width:0.6;" x="144" xlink:href="#mba3a2a3f59" y="278.195894"/>
      </g>
     </g>
    </g>
    <g id="ytick_28">
     <g id="line2d_93">
      <path clip-path="url(#p3a22d773e1)" d="M 144 262.430499 
L 1036.8 262.430499 
" style="fill:none;stroke:#b0b0b0;stroke-dasharray:0.8,1.32;stroke-dashoffset:0;stroke-width:0.8;"/>
     </g>
     <g id="line2d_94">
      <g>
       <use style="stroke:#000000;stroke-width:0.6;" x="144" xlink:href="#mba3a2a3f59" y="262.430499"/>
      </g>
     </g>
    </g>
    <g id="ytick_29">
     <g id="line2d_95">
      <path clip-path="url(#p3a22d773e1)" d="M 144 230.899707 
L 1036.8 230.899707 
" style="fill:none;stroke:#b0b0b0;stroke-dasharray:0.8,1.32;stroke-dashoffset:0;stroke-width:0.8;"/>
     </g>
     <g id="line2d_96">
      <g>
       <use style="stroke:#000000;stroke-width:0.6;" x="144" xlink:href="#mba3a2a3f59" y="230.899707"/>
      </g>
     </g>
    </g>
    <g id="ytick_30">
     <g id="line2d_97">
      <path clip-path="url(#p3a22d773e1)" d="M 144 215.134311 
L 1036.8 215.134311 
" style="fill:none;stroke:#b0b0b0;stroke-dasharray:0.8,1.32;stroke-dashoffset:0;stroke-width:0.8;"/>
     </g>
     <g id="line2d_98">
      <g>
       <use style="stroke:#000000;stroke-width:0.6;" x="144" xlink:href="#mba3a2a3f59" y="215.134311"/>
      </g>
     </g>
    </g>
    <g id="ytick_31">
     <g id="line2d_99">
      <path clip-path="url(#p3a22d773e1)" d="M 144 199.368915 
L 1036.8 199.368915 
" style="fill:none;stroke:#b0b0b0;stroke-dasharray:0.8,1.32;stroke-dashoffset:0;stroke-width:0.8;"/>
     </g>
     <g id="line2d_100">
      <g>
       <use style="stroke:#000000;stroke-width:0.6;" x="144" xlink:href="#mba3a2a3f59" y="199.368915"/>
      </g>
     </g>
    </g>
    <g id="ytick_32">
     <g id="line2d_101">
      <path clip-path="url(#p3a22d773e1)" d="M 144 183.603519 
L 1036.8 183.603519 
" style="fill:none;stroke:#b0b0b0;stroke-dasharray:0.8,1.32;stroke-dashoffset:0;stroke-width:0.8;"/>
     </g>
     <g id="line2d_102">
      <g>
       <use style="stroke:#000000;stroke-width:0.6;" x="144" xlink:href="#mba3a2a3f59" y="183.603519"/>
      </g>
     </g>
    </g>
    <g id="ytick_33">
     <g id="line2d_103">
      <path clip-path="url(#p3a22d773e1)" d="M 144 152.072727 
L 1036.8 152.072727 
" style="fill:none;stroke:#b0b0b0;stroke-dasharray:0.8,1.32;stroke-dashoffset:0;stroke-width:0.8;"/>
     </g>
     <g id="line2d_104">
      <g>
       <use style="stroke:#000000;stroke-width:0.6;" x="144" xlink:href="#mba3a2a3f59" y="152.072727"/>
      </g>
     </g>
    </g>
    <g id="ytick_34">
     <g id="line2d_105">
      <path clip-path="url(#p3a22d773e1)" d="M 144 136.307331 
L 1036.8 136.307331 
" style="fill:none;stroke:#b0b0b0;stroke-dasharray:0.8,1.32;stroke-dashoffset:0;stroke-width:0.8;"/>
     </g>
     <g id="line2d_106">
      <g>
       <use style="stroke:#000000;stroke-width:0.6;" x="144" xlink:href="#mba3a2a3f59" y="136.307331"/>
      </g>
     </g>
    </g>
    <g id="ytick_35">
     <g id="line2d_107">
      <path clip-path="url(#p3a22d773e1)" d="M 144 120.541935 
L 1036.8 120.541935 
" style="fill:none;stroke:#b0b0b0;stroke-dasharray:0.8,1.32;stroke-dashoffset:0;stroke-width:0.8;"/>
     </g>
     <g id="line2d_108">
      <g>
       <use style="stroke:#000000;stroke-width:0.6;" x="144" xlink:href="#mba3a2a3f59" y="120.541935"/>
      </g>
     </g>
    </g>
    <g id="ytick_36">
     <g id="line2d_109">
      <path clip-path="url(#p3a22d773e1)" d="M 144 104.77654 
L 1036.8 104.77654 
" style="fill:none;stroke:#b0b0b0;stroke-dasharray:0.8,1.32;stroke-dashoffset:0;stroke-width:0.8;"/>
     </g>
     <g id="line2d_110">
      <g>
       <use style="stroke:#000000;stroke-width:0.6;" x="144" xlink:href="#mba3a2a3f59" y="104.77654"/>
      </g>
     </g>
    </g>
    <g id="text_15">
     <!-- voltage, vlt -->
     <g transform="translate(115.017187 391.769531)rotate(-90)scale(0.1 -0.1)">
      <defs>
       <path d="M 191 3500 
L 800 3500 
L 1894 563 
L 2988 3500 
L 3597 3500 
L 2284 0 
L 1503 0 
L 191 3500 
z
" id="DejaVuSans-76" transform="scale(0.015625)"/>
       <path d="M 1959 3097 
Q 1497 3097 1228 2736 
Q 959 2375 959 1747 
Q 959 1119 1226 758 
Q 1494 397 1959 397 
Q 2419 397 2687 759 
Q 2956 1122 2956 1747 
Q 2956 2369 2687 2733 
Q 2419 3097 1959 3097 
z
M 1959 3584 
Q 2709 3584 3137 3096 
Q 3566 2609 3566 1747 
Q 3566 888 3137 398 
Q 2709 -91 1959 -91 
Q 1206 -91 779 398 
Q 353 888 353 1747 
Q 353 2609 779 3096 
Q 1206 3584 1959 3584 
z
" id="DejaVuSans-6f" transform="scale(0.015625)"/>
       <path d="M 603 4863 
L 1178 4863 
L 1178 0 
L 603 0 
L 603 4863 
z
" id="DejaVuSans-6c" transform="scale(0.015625)"/>
       <path d="M 2194 1759 
Q 1497 1759 1228 1600 
Q 959 1441 959 1056 
Q 959 750 1161 570 
Q 1363 391 1709 391 
Q 2188 391 2477 730 
Q 2766 1069 2766 1631 
L 2766 1759 
L 2194 1759 
z
M 3341 1997 
L 3341 0 
L 2766 0 
L 2766 531 
Q 2569 213 2275 61 
Q 1981 -91 1556 -91 
Q 1019 -91 701 211 
Q 384 513 384 1019 
Q 384 1609 779 1909 
Q 1175 2209 1959 2209 
L 2766 2209 
L 2766 2266 
Q 2766 2663 2505 2880 
Q 2244 3097 1772 3097 
Q 1472 3097 1187 3025 
Q 903 2953 641 2809 
L 641 3341 
Q 956 3463 1253 3523 
Q 1550 3584 1831 3584 
Q 2591 3584 2966 3190 
Q 3341 2797 3341 1997 
z
" id="DejaVuSans-61" transform="scale(0.015625)"/>
       <path d="M 2906 1791 
Q 2906 2416 2648 2759 
Q 2391 3103 1925 3103 
Q 1463 3103 1205 2759 
Q 947 2416 947 1791 
Q 947 1169 1205 825 
Q 1463 481 1925 481 
Q 2391 481 2648 825 
Q 2906 1169 2906 1791 
z
M 3481 434 
Q 3481 -459 3084 -895 
Q 2688 -1331 1869 -1331 
Q 1566 -1331 1297 -1286 
Q 1028 -1241 775 -1147 
L 775 -588 
Q 1028 -725 1275 -790 
Q 1522 -856 1778 -856 
Q 2344 -856 2625 -561 
Q 2906 -266 2906 331 
L 2906 616 
Q 2728 306 2450 153 
Q 2172 0 1784 0 
Q 1141 0 747 490 
Q 353 981 353 1791 
Q 353 2603 747 3093 
Q 1141 3584 1784 3584 
Q 2172 3584 2450 3431 
Q 2728 3278 2906 2969 
L 2906 3500 
L 3481 3500 
L 3481 434 
z
" id="DejaVuSans-67" transform="scale(0.015625)"/>
      </defs>
      <use xlink:href="#DejaVuSans-76"/>
      <use x="59.179688" xlink:href="#DejaVuSans-6f"/>
      <use x="120.361328" xlink:href="#DejaVuSans-6c"/>
      <use x="148.144531" xlink:href="#DejaVuSans-74"/>
      <use x="187.353516" xlink:href="#DejaVuSans-61"/>
      <use x="248.632812" xlink:href="#DejaVuSans-67"/>
      <use x="312.109375" xlink:href="#DejaVuSans-65"/>
      <use x="373.632812" xlink:href="#DejaVuSans-2c"/>
      <use x="405.419922" xlink:href="#DejaVuSans-20"/>
      <use x="437.207031" xlink:href="#DejaVuSans-76"/>
      <use x="496.386719" xlink:href="#DejaVuSans-6c"/>
      <use x="524.169922" xlink:href="#DejaVuSans-74"/>
     </g>
    </g>
   </g>
   <g id="line2d_111">
    <path clip-path="url(#p3a22d773e1)" d="M 144 636.735484 
L 144.808403 634.703226 
L 147.233611 622.509677 
L 148.042014 620.477419 
L 148.850417 614.380645 
L 150.467222 606.251613 
L 151.275625 606.251613 
L 152.084028 602.187097 
L 152.89243 594.058065 
L 153.700833 594.058065 
L 154.509236 587.96129 
L 155.317639 583.896774 
L 156.126041 581.864516 
L 156.934444 577.8 
L 158.55125 573.735484 
L 160.976458 561.541935 
L 161.784861 553.412903 
L 164.210069 547.316129 
L 165.826874 539.187097 
L 166.635277 537.154839 
L 167.44368 531.058065 
L 168.252083 529.025806 
L 169.060485 529.025806 
L 169.868888 520.896774 
L 170.677291 520.896774 
L 171.485694 518.864516 
L 172.294096 512.767742 
L 173.102499 510.735484 
L 173.910902 504.63871 
L 174.719305 504.63871 
L 175.527707 502.606452 
L 176.33611 496.509677 
L 177.144513 496.509677 
L 178.761318 488.380645 
L 179.569721 488.380645 
L 180.378124 482.283871 
L 181.186527 478.219355 
L 183.611735 472.122581 
L 184.420138 466.025806 
L 185.22854 468.058065 
L 186.036943 461.96129 
L 186.845346 463.993548 
L 187.653749 459.929032 
L 188.462151 453.832258 
L 189.270554 455.864516 
L 190.88736 447.735484 
L 191.695762 447.735484 
L 192.504165 445.703226 
L 193.312568 439.606452 
L 197.354582 429.445161 
L 198.162984 425.380645 
L 198.971387 423.348387 
L 199.77979 419.283871 
L 200.588193 417.251613 
L 201.396595 417.251613 
L 202.204998 411.154839 
L 203.013401 415.219355 
L 205.438609 403.025806 
L 206.247012 403.025806 
L 208.67222 396.929032 
L 209.480623 392.864516 
L 210.289026 390.832258 
L 211.097428 392.864516 
L 211.905831 386.767742 
L 212.714234 386.767742 
L 213.522637 382.703226 
L 215.139442 382.703226 
L 215.947845 378.63871 
L 216.756248 376.606452 
L 217.56465 372.541935 
L 218.373053 372.541935 
L 219.181456 366.445161 
L 220.798261 366.445161 
L 221.606664 360.348387 
L 222.415067 358.316129 
L 224.840275 358.316129 
L 225.648678 352.219355 
L 226.457081 354.251613 
L 227.265484 350.187097 
L 228.073886 350.187097 
L 228.882289 348.154839 
L 230.499095 340.025806 
L 231.307497 344.090323 
L 232.1159 340.025806 
L 232.924303 340.025806 
L 233.732706 335.96129 
L 234.541108 337.993548 
L 235.349511 335.96129 
L 236.157914 329.864516 
L 236.966317 331.896774 
L 237.774719 329.864516 
L 238.583122 329.864516 
L 239.391525 325.8 
L 240.199928 323.767742 
L 241.00833 319.703226 
L 241.816733 319.703226 
L 242.625136 321.735484 
L 243.433539 317.670968 
L 244.241941 317.670968 
L 245.050344 313.606452 
L 245.858747 313.606452 
L 246.66715 309.541935 
L 247.475552 307.509677 
L 248.283955 309.541935 
L 251.517566 301.412903 
L 252.325969 303.445161 
L 254.751177 297.348387 
L 256.367983 297.348387 
L 257.176385 291.251613 
L 258.793191 291.251613 
L 259.601594 287.187097 
L 261.218399 287.187097 
L 262.026802 285.154839 
L 262.835205 285.154839 
L 263.643607 287.187097 
L 264.45201 285.154839 
L 265.260413 281.090323 
L 266.068816 279.058065 
L 267.685621 279.058065 
L 268.494024 274.993548 
L 269.302427 277.025806 
L 270.110829 272.96129 
L 270.919232 272.96129 
L 271.727635 270.929032 
L 272.536038 270.929032 
L 273.34444 266.864516 
L 274.152843 268.896774 
L 274.961246 266.864516 
L 275.769649 266.864516 
L 276.578051 262.8 
L 278.194857 262.8 
L 279.811662 258.735484 
L 280.620065 260.767742 
L 281.428468 256.703226 
L 282.236871 258.735484 
L 283.045273 258.735484 
L 283.853676 254.670968 
L 285.470482 254.670968 
L 286.278884 252.63871 
L 287.89569 252.63871 
L 288.704093 248.574194 
L 290.320898 248.574194 
L 291.129301 246.541935 
L 291.937704 248.574194 
L 292.746106 246.541935 
L 293.554509 242.477419 
L 295.979717 242.477419 
L 296.78812 240.445161 
L 297.596523 236.380645 
L 298.404926 236.380645 
L 299.213329 234.348387 
L 302.44694 234.348387 
L 303.255342 230.283871 
L 304.063745 230.283871 
L 304.872148 234.348387 
L 305.680551 232.316129 
L 307.297356 232.316129 
L 310.530967 224.187097 
L 311.33937 224.187097 
L 312.147773 226.219355 
L 312.956175 224.187097 
L 315.381384 224.187097 
L 316.189786 220.122581 
L 316.998189 222.154839 
L 317.806592 222.154839 
L 319.423397 218.090323 
L 320.2318 218.090323 
L 321.040203 220.122581 
L 321.848606 216.058065 
L 322.657008 214.025806 
L 323.465411 214.025806 
L 324.273814 211.993548 
L 325.082217 214.025806 
L 325.890619 211.993548 
L 326.699022 211.993548 
L 328.315828 207.929032 
L 329.12423 209.96129 
L 329.932633 205.896774 
L 330.741036 209.96129 
L 331.549439 205.896774 
L 332.357841 207.929032 
L 333.166244 205.896774 
L 335.591452 205.896774 
L 337.208258 201.832258 
L 338.016661 205.896774 
L 338.825063 205.896774 
L 341.250272 199.8 
L 342.867077 203.864516 
L 343.67548 199.8 
L 345.292285 199.8 
L 346.100688 195.735484 
L 346.909091 195.735484 
L 347.717494 199.8 
L 348.525896 195.735484 
L 349.334299 193.703226 
L 350.142702 197.767742 
L 352.56791 191.670968 
L 353.376313 191.670968 
L 354.184716 193.703226 
L 355.801521 189.63871 
L 356.609924 191.670968 
L 357.418327 187.606452 
L 358.226729 191.670968 
L 359.035132 189.63871 
L 359.843535 191.670968 
L 360.651938 187.606452 
L 361.46034 189.63871 
L 362.268743 185.574194 
L 363.077146 185.574194 
L 364.693951 189.63871 
L 365.502354 187.606452 
L 366.310757 187.606452 
L 367.11916 185.574194 
L 367.927562 185.574194 
L 369.544368 181.509677 
L 370.352771 187.606452 
L 371.161173 181.509677 
L 371.969576 183.541935 
L 372.777979 181.509677 
L 373.586382 181.509677 
L 374.394784 183.541935 
L 375.203187 179.477419 
L 376.819993 179.477419 
L 377.628396 181.509677 
L 378.436798 179.477419 
L 379.245201 179.477419 
L 380.053604 177.445161 
L 380.862007 179.477419 
L 381.670409 177.445161 
L 382.478812 177.445161 
L 383.287215 175.412903 
L 384.095618 177.445161 
L 384.90402 177.445161 
L 386.520826 173.380645 
L 387.329229 173.380645 
L 388.137631 175.412903 
L 388.946034 175.412903 
L 389.754437 173.380645 
L 390.56284 175.412903 
L 392.988048 175.412903 
L 394.604853 171.348387 
L 397.030062 171.348387 
L 397.838464 169.316129 
L 398.646867 171.348387 
L 399.45527 169.316129 
L 401.880478 169.316129 
L 402.688881 167.283871 
L 404.305686 171.348387 
L 405.114089 169.316129 
L 405.922492 169.316129 
L 406.730895 171.348387 
L 407.539297 169.316129 
L 409.156103 169.316129 
L 409.964506 167.283871 
L 410.772908 167.283871 
L 411.581311 169.316129 
L 412.389714 165.251613 
L 413.198117 167.283871 
L 414.006519 163.219355 
L 415.623325 167.283871 
L 417.24013 163.219355 
L 418.856936 163.219355 
L 419.665339 165.251613 
L 420.473741 161.187097 
L 421.282144 165.251613 
L 422.090547 161.187097 
L 422.89895 163.219355 
L 423.707352 163.219355 
L 424.515755 161.187097 
L 425.324158 161.187097 
L 426.132561 163.219355 
L 427.749366 159.154839 
L 429.366172 163.219355 
L 430.174574 161.187097 
L 430.982977 161.187097 
L 431.79138 163.219355 
L 432.599783 159.154839 
L 433.408185 159.154839 
L 434.216588 161.187097 
L 435.024991 159.154839 
L 435.833394 159.154839 
L 436.641796 157.122581 
L 437.450199 159.154839 
L 438.258602 157.122581 
L 439.067005 159.154839 
L 439.875407 159.154839 
L 440.68381 157.122581 
L 441.492213 157.122581 
L 442.300616 155.090323 
L 443.109018 157.122581 
L 443.917421 157.122581 
L 444.725824 159.154839 
L 446.342629 155.090323 
L 447.151032 157.122581 
L 447.959435 155.090323 
L 448.767838 155.090323 
L 449.57624 157.122581 
L 451.193046 153.058065 
L 452.001449 157.122581 
L 452.809852 153.058065 
L 453.618254 155.090323 
L 454.426657 155.090323 
L 455.23506 153.058065 
L 456.043463 153.058065 
L 456.851865 155.090323 
L 457.660268 153.058065 
L 458.468671 155.090323 
L 460.893879 155.090323 
L 461.702282 153.058065 
L 462.510685 155.090323 
L 463.319087 155.090323 
L 464.12749 153.058065 
L 464.935893 155.090323 
L 465.744296 155.090323 
L 466.552698 151.025806 
L 468.977907 151.025806 
L 469.786309 153.058065 
L 470.594712 153.058065 
L 471.403115 151.025806 
L 473.01992 151.025806 
L 473.828323 148.993548 
L 474.636726 153.058065 
L 475.445129 148.993548 
L 477.061934 148.993548 
L 477.870337 153.058065 
L 479.487142 148.993548 
L 480.295545 148.993548 
L 481.103948 151.025806 
L 481.912351 148.993548 
L 482.720753 151.025806 
L 484.337559 146.96129 
L 485.145962 146.96129 
L 485.954364 148.993548 
L 486.762767 148.993548 
L 487.57117 146.96129 
L 488.379573 148.993548 
L 489.996378 148.993548 
L 491.613184 144.929032 
L 492.421586 146.96129 
L 494.846795 146.96129 
L 495.655197 144.929032 
L 496.4636 146.96129 
L 497.272003 146.96129 
L 498.080406 148.993548 
L 498.888808 146.96129 
L 500.505614 146.96129 
L 501.314017 148.993548 
L 502.122419 144.929032 
L 502.930822 144.929032 
L 503.739225 146.96129 
L 504.547628 146.96129 
L 505.35603 142.896774 
L 506.164433 144.929032 
L 506.972836 144.929032 
L 507.781239 142.896774 
L 508.589641 144.929032 
L 510.206447 144.929032 
L 511.01485 142.896774 
L 511.823252 146.96129 
L 512.631655 144.929032 
L 513.440058 146.96129 
L 514.248461 144.929032 
L 515.865266 144.929032 
L 516.673669 142.896774 
L 518.290474 146.96129 
L 519.098877 146.96129 
L 519.90728 142.896774 
L 520.715683 144.929032 
L 521.524085 144.929032 
L 522.332488 146.96129 
L 523.140891 144.929032 
L 524.757696 144.929032 
L 525.566099 140.864516 
L 526.374502 142.896774 
L 527.182905 142.896774 
L 527.991307 144.929032 
L 528.79971 144.929032 
L 529.608113 140.864516 
L 531.224919 144.929032 
L 532.841724 140.864516 
L 533.650127 144.929032 
L 534.45853 140.864516 
L 539.308946 140.864516 
L 540.925752 144.929032 
L 541.734154 138.832258 
L 542.542557 140.864516 
L 545.776168 140.864516 
L 546.584571 142.896774 
L 547.392974 138.832258 
L 548.201376 138.832258 
L 549.009779 142.896774 
L 549.818182 140.864516 
L 550.626585 140.864516 
L 551.434987 138.832258 
L 552.24339 138.832258 
L 553.051793 142.896774 
L 553.860196 138.832258 
L 554.668598 140.864516 
L 555.477001 138.832258 
L 556.285404 138.832258 
L 557.093807 140.864516 
L 558.710612 140.864516 
L 559.519015 138.832258 
L 561.13582 138.832258 
L 561.944223 140.864516 
L 562.752626 138.832258 
L 563.561029 140.864516 
L 564.369431 140.864516 
L 565.177834 138.832258 
L 565.986237 138.832258 
L 566.79464 142.896774 
L 567.603042 138.832258 
L 568.411445 138.832258 
L 569.219848 136.8 
L 570.028251 144.929032 
L 570.836653 146.96129 
L 571.645056 153.058065 
L 572.453459 155.090323 
L 573.261862 161.187097 
L 574.070264 163.219355 
L 574.878667 167.283871 
L 575.68707 169.316129 
L 582.154292 201.832258 
L 582.962695 201.832258 
L 583.771097 205.896774 
L 584.5795 211.993548 
L 585.387903 214.025806 
L 586.196306 218.090323 
L 587.004708 220.122581 
L 587.813111 226.219355 
L 588.621514 226.219355 
L 591.046722 238.412903 
L 591.855125 240.445161 
L 592.663528 244.509677 
L 595.088736 250.606452 
L 595.897139 256.703226 
L 597.513944 260.767742 
L 598.322347 264.832258 
L 599.13075 266.864516 
L 600.747555 274.993548 
L 602.364361 279.058065 
L 603.172763 283.122581 
L 603.981166 283.122581 
L 605.597972 291.251613 
L 608.831583 299.380645 
L 609.639986 305.477419 
L 610.448388 305.477419 
L 611.256791 307.509677 
L 612.873597 315.63871 
L 613.681999 315.63871 
L 615.298805 323.767742 
L 616.107208 323.767742 
L 616.91561 327.832258 
L 617.724013 329.864516 
L 618.532416 333.929032 
L 619.340819 333.929032 
L 620.149221 335.96129 
L 620.957624 340.025806 
L 621.766027 340.025806 
L 623.382832 344.090323 
L 624.191235 348.154839 
L 627.424846 356.283871 
L 628.233249 360.348387 
L 629.041652 360.348387 
L 629.850054 364.412903 
L 630.658457 364.412903 
L 631.46686 368.477419 
L 632.275263 368.477419 
L 633.083665 370.509677 
L 634.700471 378.63871 
L 635.508874 380.670968 
L 637.125679 380.670968 
L 637.934082 384.735484 
L 641.167693 392.864516 
L 641.976096 396.929032 
L 644.401304 396.929032 
L 645.209707 403.025806 
L 646.826512 407.090323 
L 647.634915 411.154839 
L 648.443318 409.122581 
L 649.25172 413.187097 
L 650.868526 413.187097 
L 651.676929 417.251613 
L 652.485331 417.251613 
L 653.293734 421.316129 
L 654.102137 423.348387 
L 654.91054 423.348387 
L 655.718942 425.380645 
L 656.527345 425.380645 
L 658.952553 431.477419 
L 659.760956 435.541935 
L 660.569359 437.574194 
L 661.377762 435.541935 
L 662.994567 439.606452 
L 663.80297 443.670968 
L 664.611373 443.670968 
L 666.228178 447.735484 
L 667.036581 447.735484 
L 667.844984 449.767742 
L 668.653386 449.767742 
L 669.461789 455.864516 
L 670.270192 453.832258 
L 671.078595 453.832258 
L 671.886997 459.929032 
L 672.6954 457.896774 
L 673.503803 457.896774 
L 675.120608 461.96129 
L 675.929011 466.025806 
L 676.737414 468.058065 
L 677.545817 466.025806 
L 678.354219 472.122581 
L 679.162622 470.090323 
L 679.971025 474.154839 
L 680.779428 472.122581 
L 681.58783 474.154839 
L 682.396233 474.154839 
L 684.013039 478.219355 
L 684.821442 478.219355 
L 685.629844 482.283871 
L 686.438247 480.251613 
L 688.055053 484.316129 
L 688.863455 482.283871 
L 692.097066 490.412903 
L 693.713872 490.412903 
L 694.522275 496.509677 
L 695.330677 496.509677 
L 696.13908 494.477419 
L 697.755886 498.541935 
L 698.564288 498.541935 
L 699.372691 500.574194 
L 700.181094 500.574194 
L 700.989497 502.606452 
L 701.797899 502.606452 
L 702.606302 504.63871 
L 703.414705 504.63871 
L 704.223108 506.670968 
L 705.03151 510.735484 
L 705.839913 506.670968 
L 706.648316 508.703226 
L 707.456719 508.703226 
L 708.265121 512.767742 
L 709.881927 512.767742 
L 710.69033 514.8 
L 711.498732 514.8 
L 712.307135 518.864516 
L 713.115538 518.864516 
L 713.923941 520.896774 
L 715.540746 520.896774 
L 717.157552 524.96129 
L 717.965954 522.929032 
L 718.774357 524.96129 
L 719.58276 524.96129 
L 721.199565 529.025806 
L 722.007968 529.025806 
L 723.624774 533.090323 
L 724.433176 531.058065 
L 725.241579 531.058065 
L 726.049982 535.122581 
L 726.858385 531.058065 
L 727.666787 535.122581 
L 728.47519 535.122581 
L 729.283593 537.154839 
L 730.091996 535.122581 
L 731.708801 539.187097 
L 732.517204 537.154839 
L 734.134009 541.219355 
L 734.942412 539.187097 
L 735.750815 541.219355 
L 736.559218 539.187097 
L 738.176023 543.251613 
L 738.984426 543.251613 
L 740.601231 547.316129 
L 741.409634 545.283871 
L 742.218037 547.316129 
L 743.02644 547.316129 
L 743.834842 549.348387 
L 744.643245 549.348387 
L 746.260051 553.412903 
L 747.068453 551.380645 
L 748.685259 551.380645 
L 749.493662 555.445161 
L 750.302064 553.412903 
L 751.110467 557.477419 
L 751.91887 555.445161 
L 752.727273 557.477419 
L 753.535675 557.477419 
L 754.344078 555.445161 
L 755.152481 559.509677 
L 756.769286 559.509677 
L 757.577689 561.541935 
L 758.386092 559.509677 
L 759.194495 559.509677 
L 760.002898 563.574194 
L 760.8113 561.541935 
L 761.619703 563.574194 
L 763.236509 563.574194 
L 764.853314 567.63871 
L 765.661717 567.63871 
L 766.47012 565.606452 
L 767.278522 567.63871 
L 768.086925 567.63871 
L 768.895328 569.670968 
L 770.512133 569.670968 
L 771.320536 571.703226 
L 772.937342 571.703226 
L 773.745744 573.735484 
L 774.554147 571.703226 
L 775.36255 571.703226 
L 776.170953 575.767742 
L 776.979355 573.735484 
L 778.596161 573.735484 
L 779.404564 575.767742 
L 781.021369 575.767742 
L 781.829772 577.8 
L 782.638175 575.767742 
L 783.446577 575.767742 
L 784.25498 579.832258 
L 785.063383 577.8 
L 785.871786 577.8 
L 787.488591 581.864516 
L 788.296994 579.832258 
L 789.913799 579.832258 
L 791.530605 583.896774 
L 792.339008 583.896774 
L 793.14741 581.864516 
L 793.955813 581.864516 
L 795.572619 585.929032 
L 797.189424 585.929032 
L 797.997827 587.96129 
L 798.80623 585.929032 
L 799.614632 587.96129 
L 800.423035 585.929032 
L 801.231438 587.96129 
L 803.656646 587.96129 
L 804.465049 589.993548 
L 805.273452 587.96129 
L 806.081854 587.96129 
L 807.69866 592.025806 
L 808.507063 592.025806 
L 809.315465 594.058065 
L 810.932271 594.058065 
L 811.740674 592.025806 
L 812.549076 592.025806 
L 813.357479 596.090323 
L 814.165882 592.025806 
L 815.782687 592.025806 
L 817.399493 596.090323 
L 818.207896 594.058065 
L 819.824701 598.122581 
L 820.633104 596.090323 
L 821.441507 598.122581 
L 822.249909 598.122581 
L 823.058312 596.090323 
L 823.866715 598.122581 
L 827.908729 598.122581 
L 828.717131 602.187097 
L 829.525534 598.122581 
L 831.14234 602.187097 
L 831.950742 602.187097 
L 832.759145 600.154839 
L 833.567548 602.187097 
L 835.184353 602.187097 
L 835.992756 604.219355 
L 836.801159 602.187097 
L 837.609562 604.219355 
L 838.417965 602.187097 
L 839.226367 604.219355 
L 840.03477 604.219355 
L 840.843173 606.251613 
L 842.459978 606.251613 
L 843.268381 604.219355 
L 844.076784 604.219355 
L 844.885187 606.251613 
L 845.693589 604.219355 
L 846.501992 608.283871 
L 847.310395 606.251613 
L 848.9272 606.251613 
L 849.735603 608.283871 
L 850.544006 606.251613 
L 851.352409 608.283871 
L 852.160811 606.251613 
L 852.969214 610.316129 
L 854.58602 606.251613 
L 855.394422 608.283871 
L 857.011228 608.283871 
L 857.819631 610.316129 
L 858.628033 608.283871 
L 860.244839 612.348387 
L 861.053242 612.348387 
L 862.670047 608.283871 
L 863.47845 612.348387 
L 864.286853 612.348387 
L 865.095255 610.316129 
L 865.903658 612.348387 
L 868.328866 612.348387 
L 869.137269 610.316129 
L 869.945672 612.348387 
L 872.37088 612.348387 
L 873.179283 614.380645 
L 873.987686 612.348387 
L 875.604491 612.348387 
L 877.221297 616.412903 
L 878.029699 616.412903 
L 878.838102 614.380645 
L 879.646505 614.380645 
L 880.454908 612.348387 
L 881.26331 614.380645 
L 883.688519 614.380645 
L 884.496921 618.445161 
L 886.113727 614.380645 
L 886.92213 616.412903 
L 887.730532 616.412903 
L 888.538935 614.380645 
L 889.347338 618.445161 
L 890.964143 618.445161 
L 891.772546 616.412903 
L 892.580949 616.412903 
L 893.389352 618.445161 
L 894.197754 618.445161 
L 895.006157 620.477419 
L 895.81456 618.445161 
L 896.622963 620.477419 
L 897.431365 620.477419 
L 898.239768 618.445161 
L 899.048171 620.477419 
L 902.281782 620.477419 
L 903.090185 622.509677 
L 903.898587 620.477419 
L 904.70699 622.509677 
L 905.515393 622.509677 
L 906.323796 620.477419 
L 907.132198 620.477419 
L 907.940601 622.509677 
L 908.749004 620.477419 
L 910.365809 620.477419 
L 911.174212 622.509677 
L 912.791018 622.509677 
L 913.59942 620.477419 
L 915.216226 620.477419 
L 916.024629 622.509677 
L 916.833032 622.509677 
L 917.641434 624.541935 
L 918.449837 622.509677 
L 919.25824 624.541935 
L 920.066643 622.509677 
L 920.875045 624.541935 
L 921.683448 624.541935 
L 922.491851 626.574194 
L 923.300254 622.509677 
L 924.917059 622.509677 
L 925.725462 624.541935 
L 926.533865 624.541935 
L 927.342267 626.574194 
L 928.15067 624.541935 
L 928.959073 624.541935 
L 929.767476 626.574194 
L 931.384281 626.574194 
L 932.192684 624.541935 
L 933.001087 624.541935 
L 933.809489 626.574194 
L 934.617892 624.541935 
L 936.234698 628.606452 
L 937.851503 624.541935 
L 938.659906 626.574194 
L 941.085114 626.574194 
L 941.893517 628.606452 
L 942.70192 624.541935 
L 943.510322 628.606452 
L 944.318725 624.541935 
L 945.127128 624.541935 
L 945.935531 626.574194 
L 947.552336 626.574194 
L 948.360739 628.606452 
L 949.169142 626.574194 
L 949.977544 628.606452 
L 950.785947 626.574194 
L 951.59435 628.606452 
L 954.019558 628.606452 
L 954.827961 626.574194 
L 955.636364 630.63871 
L 955.636364 630.63871 
" style="fill:none;stroke:#bf00bf;stroke-linecap:square;stroke-opacity:0.5;stroke-width:1.5;"/>
   </g>
   <g id="line2d_112">
    <defs>
     <path d="M 0 3 
C 0.795609 3 1.55874 2.683901 2.12132 2.12132 
C 2.683901 1.55874 3 0.795609 3 0 
C 3 -0.795609 2.683901 -1.55874 2.12132 -2.12132 
C 1.55874 -2.683901 0.795609 -3 0 -3 
C -0.795609 -3 -1.55874 -2.683901 -2.12132 -2.12132 
C -2.683901 -1.55874 -3 -0.795609 -3 0 
C -3 0.795609 -2.683901 1.55874 -2.12132 2.12132 
C -1.55874 2.683901 -0.795609 3 0 3 
z
" id="m96bbff10db" style="stroke:#0000ff;"/>
    </defs>
    <g clip-path="url(#p3a22d773e1)">
     <use style="fill:#0000ff;stroke:#0000ff;" x="144" xlink:href="#m96bbff10db" y="636.735484"/>
     <use style="fill:#0000ff;stroke:#0000ff;" x="164.210069" xlink:href="#m96bbff10db" y="547.316129"/>
     <use style="fill:#0000ff;stroke:#0000ff;" x="184.420138" xlink:href="#m96bbff10db" y="466.025806"/>
     <use style="fill:#0000ff;stroke:#0000ff;" x="204.630206" xlink:href="#m96bbff10db" y="407.090323"/>
     <use style="fill:#0000ff;stroke:#0000ff;" x="224.840275" xlink:href="#m96bbff10db" y="358.316129"/>
     <use style="fill:#0000ff;stroke:#0000ff;" x="245.050344" xlink:href="#m96bbff10db" y="313.606452"/>
     <use style="fill:#0000ff;stroke:#0000ff;" x="265.260413" xlink:href="#m96bbff10db" y="281.090323"/>
     <use style="fill:#0000ff;stroke:#0000ff;" x="285.470482" xlink:href="#m96bbff10db" y="254.670968"/>
     <use style="fill:#0000ff;stroke:#0000ff;" x="305.680551" xlink:href="#m96bbff10db" y="232.316129"/>
     <use style="fill:#0000ff;stroke:#0000ff;" x="325.890619" xlink:href="#m96bbff10db" y="211.993548"/>
     <use style="fill:#0000ff;stroke:#0000ff;" x="346.100688" xlink:href="#m96bbff10db" y="195.735484"/>
     <use style="fill:#0000ff;stroke:#0000ff;" x="366.310757" xlink:href="#m96bbff10db" y="187.606452"/>
     <use style="fill:#0000ff;stroke:#0000ff;" x="386.520826" xlink:href="#m96bbff10db" y="173.380645"/>
     <use style="fill:#0000ff;stroke:#0000ff;" x="406.730895" xlink:href="#m96bbff10db" y="171.348387"/>
     <use style="fill:#0000ff;stroke:#0000ff;" x="426.940963" xlink:href="#m96bbff10db" y="161.187097"/>
     <use style="fill:#0000ff;stroke:#0000ff;" x="447.151032" xlink:href="#m96bbff10db" y="157.122581"/>
     <use style="fill:#0000ff;stroke:#0000ff;" x="467.361101" xlink:href="#m96bbff10db" y="151.025806"/>
     <use style="fill:#0000ff;stroke:#0000ff;" x="487.57117" xlink:href="#m96bbff10db" y="146.96129"/>
     <use style="fill:#0000ff;stroke:#0000ff;" x="507.781239" xlink:href="#m96bbff10db" y="142.896774"/>
     <use style="fill:#0000ff;stroke:#0000ff;" x="527.991307" xlink:href="#m96bbff10db" y="144.929032"/>
     <use style="fill:#0000ff;stroke:#0000ff;" x="548.201376" xlink:href="#m96bbff10db" y="138.832258"/>
     <use style="fill:#0000ff;stroke:#0000ff;" x="568.411445" xlink:href="#m96bbff10db" y="138.832258"/>
     <use style="fill:#0000ff;stroke:#0000ff;" x="588.621514" xlink:href="#m96bbff10db" y="226.219355"/>
     <use style="fill:#0000ff;stroke:#0000ff;" x="608.831583" xlink:href="#m96bbff10db" y="299.380645"/>
     <use style="fill:#0000ff;stroke:#0000ff;" x="629.041652" xlink:href="#m96bbff10db" y="360.348387"/>
     <use style="fill:#0000ff;stroke:#0000ff;" x="649.25172" xlink:href="#m96bbff10db" y="413.187097"/>
     <use style="fill:#0000ff;stroke:#0000ff;" x="669.461789" xlink:href="#m96bbff10db" y="455.864516"/>
     <use style="fill:#0000ff;stroke:#0000ff;" x="689.671858" xlink:href="#m96bbff10db" y="484.316129"/>
     <use style="fill:#0000ff;stroke:#0000ff;" x="709.881927" xlink:href="#m96bbff10db" y="512.767742"/>
     <use style="fill:#0000ff;stroke:#0000ff;" x="730.091996" xlink:href="#m96bbff10db" y="535.122581"/>
     <use style="fill:#0000ff;stroke:#0000ff;" x="750.302064" xlink:href="#m96bbff10db" y="553.412903"/>
     <use style="fill:#0000ff;stroke:#0000ff;" x="770.512133" xlink:href="#m96bbff10db" y="569.670968"/>
     <use style="fill:#0000ff;stroke:#0000ff;" x="790.722202" xlink:href="#m96bbff10db" y="581.864516"/>
     <use style="fill:#0000ff;stroke:#0000ff;" x="810.932271" xlink:href="#m96bbff10db" y="594.058065"/>
     <use style="fill:#0000ff;stroke:#0000ff;" x="831.14234" xlink:href="#m96bbff10db" y="602.187097"/>
     <use style="fill:#0000ff;stroke:#0000ff;" x="851.352409" xlink:href="#m96bbff10db" y="608.283871"/>
     <use style="fill:#0000ff;stroke:#0000ff;" x="871.562477" xlink:href="#m96bbff10db" y="612.348387"/>
     <use style="fill:#0000ff;stroke:#0000ff;" x="891.772546" xlink:href="#m96bbff10db" y="616.412903"/>
     <use style="fill:#0000ff;stroke:#0000ff;" x="911.982615" xlink:href="#m96bbff10db" y="622.509677"/>
     <use style="fill:#0000ff;stroke:#0000ff;" x="932.192684" xlink:href="#m96bbff10db" y="624.541935"/>
     <use style="fill:#0000ff;stroke:#0000ff;" x="952.402753" xlink:href="#m96bbff10db" y="628.606452"/>
    </g>
   </g>
   <g id="patch_3">
    <path d="M 144 640.8 
L 144 86.4 
" style="fill:none;stroke:#000000;stroke-linecap:square;stroke-linejoin:miter;stroke-width:0.8;"/>
   </g>
   <g id="patch_4">
    <path d="M 1036.8 640.8 
L 1036.8 86.4 
" style="fill:none;stroke:#000000;stroke-linecap:square;stroke-linejoin:miter;stroke-width:0.8;"/>
   </g>
   <g id="patch_5">
    <path d="M 144 640.8 
L 1036.8 640.8 
" style="fill:none;stroke:#000000;stroke-linecap:square;stroke-linejoin:miter;stroke-width:0.8;"/>
   </g>
   <g id="patch_6">
    <path d="M 144 86.4 
L 1036.8 86.4 
" style="fill:none;stroke:#000000;stroke-linecap:square;stroke-linejoin:miter;stroke-width:0.8;"/>
   </g>
   <g id="text_16">
    <!-- Charge time: 43.05   -->
    <g transform="translate(793.309091 212.548875)scale(0.12 -0.12)">
     <defs>
      <path d="M 4122 4306 
L 4122 3641 
Q 3803 3938 3442 4084 
Q 3081 4231 2675 4231 
Q 1875 4231 1450 3742 
Q 1025 3253 1025 2328 
Q 1025 1406 1450 917 
Q 1875 428 2675 428 
Q 3081 428 3442 575 
Q 3803 722 4122 1019 
L 4122 359 
Q 3791 134 3420 21 
Q 3050 -91 2638 -91 
Q 1578 -91 968 557 
Q 359 1206 359 2328 
Q 359 3453 968 4101 
Q 1578 4750 2638 4750 
Q 3056 4750 3426 4639 
Q 3797 4528 4122 4306 
z
" id="DejaVuSans-43" transform="scale(0.015625)"/>
      <path d="M 3513 2113 
L 3513 0 
L 2938 0 
L 2938 2094 
Q 2938 2591 2744 2837 
Q 2550 3084 2163 3084 
Q 1697 3084 1428 2787 
Q 1159 2491 1159 1978 
L 1159 0 
L 581 0 
L 581 4863 
L 1159 4863 
L 1159 2956 
Q 1366 3272 1645 3428 
Q 1925 3584 2291 3584 
Q 2894 3584 3203 3211 
Q 3513 2838 3513 2113 
z
" id="DejaVuSans-68" transform="scale(0.015625)"/>
      <path d="M 2631 2963 
Q 2534 3019 2420 3045 
Q 2306 3072 2169 3072 
Q 1681 3072 1420 2755 
Q 1159 2438 1159 1844 
L 1159 0 
L 581 0 
L 581 3500 
L 1159 3500 
L 1159 2956 
Q 1341 3275 1631 3429 
Q 1922 3584 2338 3584 
Q 2397 3584 2469 3576 
Q 2541 3569 2628 3553 
L 2631 2963 
z
" id="DejaVuSans-72" transform="scale(0.015625)"/>
      <path d="M 750 794 
L 1409 794 
L 1409 0 
L 750 0 
L 750 794 
z
M 750 3309 
L 1409 3309 
L 1409 2516 
L 750 2516 
L 750 3309 
z
" id="DejaVuSans-3a" transform="scale(0.015625)"/>
      <path d="M 3122 3366 
L 3122 2828 
Q 2878 2963 2633 3030 
Q 2388 3097 2138 3097 
Q 1578 3097 1268 2742 
Q 959 2388 959 1747 
Q 959 1106 1268 751 
Q 1578 397 2138 397 
Q 2388 397 2633 464 
Q 2878 531 3122 666 
L 3122 134 
Q 2881 22 2623 -34 
Q 2366 -91 2075 -91 
Q 1284 -91 818 406 
Q 353 903 353 1747 
Q 353 2603 823 3093 
Q 1294 3584 2113 3584 
Q 2378 3584 2631 3529 
Q 2884 3475 3122 3366 
z
" id="DejaVuSans-441" transform="scale(0.015625)"/>
     </defs>
     <use xlink:href="#DejaVuSans-43"/>
     <use x="69.824219" xlink:href="#DejaVuSans-68"/>
     <use x="133.203125" xlink:href="#DejaVuSans-61"/>
     <use x="194.482422" xlink:href="#DejaVuSans-72"/>
     <use x="233.845703" xlink:href="#DejaVuSans-67"/>
     <use x="297.322266" xlink:href="#DejaVuSans-65"/>
     <use x="358.845703" xlink:href="#DejaVuSans-20"/>
     <use x="390.632812" xlink:href="#DejaVuSans-74"/>
     <use x="429.841797" xlink:href="#DejaVuSans-69"/>
     <use x="457.625" xlink:href="#DejaVuSans-6d"/>
     <use x="555.037109" xlink:href="#DejaVuSans-65"/>
     <use x="616.560547" xlink:href="#DejaVuSans-3a"/>
     <use x="650.251953" xlink:href="#DejaVuSans-20"/>
     <use x="682.039062" xlink:href="#DejaVuSans-34"/>
     <use x="745.662109" xlink:href="#DejaVuSans-33"/>
     <use x="809.285156" xlink:href="#DejaVuSans-2e"/>
     <use x="841.072266" xlink:href="#DejaVuSans-30"/>
     <use x="904.695312" xlink:href="#DejaVuSans-35"/>
     <use x="968.318359" xlink:href="#DejaVuSans-20"/>
     <use x="1000.105469" xlink:href="#DejaVuSans-441"/>
     <use x="1055.085938" xlink:href="#DejaVuSans-20"/>
    </g>
    <!--  -->
    <g transform="translate(793.309091 225.98625)scale(0.12 -0.12)"/>
    <!-- Discharge time: 39.12  -->
    <g transform="translate(793.309091 239.423625)scale(0.12 -0.12)">
     <defs>
      <path d="M 1259 4147 
L 1259 519 
L 2022 519 
Q 2988 519 3436 956 
Q 3884 1394 3884 2338 
Q 3884 3275 3436 3711 
Q 2988 4147 2022 4147 
L 1259 4147 
z
M 628 4666 
L 1925 4666 
Q 3281 4666 3915 4102 
Q 4550 3538 4550 2338 
Q 4550 1131 3912 565 
Q 3275 0 1925 0 
L 628 0 
L 628 4666 
z
" id="DejaVuSans-44" transform="scale(0.015625)"/>
      <path d="M 703 97 
L 703 672 
Q 941 559 1184 500 
Q 1428 441 1663 441 
Q 2288 441 2617 861 
Q 2947 1281 2994 2138 
Q 2813 1869 2534 1725 
Q 2256 1581 1919 1581 
Q 1219 1581 811 2004 
Q 403 2428 403 3163 
Q 403 3881 828 4315 
Q 1253 4750 1959 4750 
Q 2769 4750 3195 4129 
Q 3622 3509 3622 2328 
Q 3622 1225 3098 567 
Q 2575 -91 1691 -91 
Q 1453 -91 1209 -44 
Q 966 3 703 97 
z
M 1959 2075 
Q 2384 2075 2632 2365 
Q 2881 2656 2881 3163 
Q 2881 3666 2632 3958 
Q 2384 4250 1959 4250 
Q 1534 4250 1286 3958 
Q 1038 3666 1038 3163 
Q 1038 2656 1286 2365 
Q 1534 2075 1959 2075 
z
" id="DejaVuSans-39" transform="scale(0.015625)"/>
     </defs>
     <use xlink:href="#DejaVuSans-44"/>
     <use x="77.001953" xlink:href="#DejaVuSans-69"/>
     <use x="104.785156" xlink:href="#DejaVuSans-73"/>
     <use x="156.884766" xlink:href="#DejaVuSans-63"/>
     <use x="211.865234" xlink:href="#DejaVuSans-68"/>
     <use x="275.244141" xlink:href="#DejaVuSans-61"/>
     <use x="336.523438" xlink:href="#DejaVuSans-72"/>
     <use x="375.886719" xlink:href="#DejaVuSans-67"/>
     <use x="439.363281" xlink:href="#DejaVuSans-65"/>
     <use x="500.886719" xlink:href="#DejaVuSans-20"/>
     <use x="532.673828" xlink:href="#DejaVuSans-74"/>
     <use x="571.882812" xlink:href="#DejaVuSans-69"/>
     <use x="599.666016" xlink:href="#DejaVuSans-6d"/>
     <use x="697.078125" xlink:href="#DejaVuSans-65"/>
     <use x="758.601562" xlink:href="#DejaVuSans-3a"/>
     <use x="792.292969" xlink:href="#DejaVuSans-20"/>
     <use x="824.080078" xlink:href="#DejaVuSans-33"/>
     <use x="887.703125" xlink:href="#DejaVuSans-39"/>
     <use x="951.326172" xlink:href="#DejaVuSans-2e"/>
     <use x="983.113281" xlink:href="#DejaVuSans-31"/>
     <use x="1046.736328" xlink:href="#DejaVuSans-32"/>
     <use x="1110.359375" xlink:href="#DejaVuSans-20"/>
     <use x="1142.146484" xlink:href="#DejaVuSans-441"/>
    </g>
   </g>
   <g id="text_17">
    <!-- Capacitor charging and discharging process in an RC circuit -->
    <g transform="translate(411.511875 80.4)scale(0.12 -0.12)">
     <defs>
      <path d="M 1159 525 
L 1159 -1331 
L 581 -1331 
L 581 3500 
L 1159 3500 
L 1159 2969 
Q 1341 3281 1617 3432 
Q 1894 3584 2278 3584 
Q 2916 3584 3314 3078 
Q 3713 2572 3713 1747 
Q 3713 922 3314 415 
Q 2916 -91 2278 -91 
Q 1894 -91 1617 61 
Q 1341 213 1159 525 
z
M 3116 1747 
Q 3116 2381 2855 2742 
Q 2594 3103 2138 3103 
Q 1681 3103 1420 2742 
Q 1159 2381 1159 1747 
Q 1159 1113 1420 752 
Q 1681 391 2138 391 
Q 2594 391 2855 752 
Q 3116 1113 3116 1747 
z
" id="DejaVuSans-70" transform="scale(0.015625)"/>
      <path d="M 3513 2113 
L 3513 0 
L 2938 0 
L 2938 2094 
Q 2938 2591 2744 2837 
Q 2550 3084 2163 3084 
Q 1697 3084 1428 2787 
Q 1159 2491 1159 1978 
L 1159 0 
L 581 0 
L 581 3500 
L 1159 3500 
L 1159 2956 
Q 1366 3272 1645 3428 
Q 1925 3584 2291 3584 
Q 2894 3584 3203 3211 
Q 3513 2838 3513 2113 
z
" id="DejaVuSans-6e" transform="scale(0.015625)"/>
      <path d="M 2906 2969 
L 2906 4863 
L 3481 4863 
L 3481 0 
L 2906 0 
L 2906 525 
Q 2725 213 2448 61 
Q 2172 -91 1784 -91 
Q 1150 -91 751 415 
Q 353 922 353 1747 
Q 353 2572 751 3078 
Q 1150 3584 1784 3584 
Q 2172 3584 2448 3432 
Q 2725 3281 2906 2969 
z
M 947 1747 
Q 947 1113 1208 752 
Q 1469 391 1925 391 
Q 2381 391 2643 752 
Q 2906 1113 2906 1747 
Q 2906 2381 2643 2742 
Q 2381 3103 1925 3103 
Q 1469 3103 1208 2742 
Q 947 2381 947 1747 
z
" id="DejaVuSans-64" transform="scale(0.015625)"/>
      <path d="M 2841 2188 
Q 3044 2119 3236 1894 
Q 3428 1669 3622 1275 
L 4263 0 
L 3584 0 
L 2988 1197 
Q 2756 1666 2539 1819 
Q 2322 1972 1947 1972 
L 1259 1972 
L 1259 0 
L 628 0 
L 628 4666 
L 2053 4666 
Q 2853 4666 3247 4331 
Q 3641 3997 3641 3322 
Q 3641 2881 3436 2590 
Q 3231 2300 2841 2188 
z
M 1259 4147 
L 1259 2491 
L 2053 2491 
Q 2509 2491 2742 2702 
Q 2975 2913 2975 3322 
Q 2975 3731 2742 3939 
Q 2509 4147 2053 4147 
L 1259 4147 
z
" id="DejaVuSans-52" transform="scale(0.015625)"/>
      <path d="M 544 1381 
L 544 3500 
L 1119 3500 
L 1119 1403 
Q 1119 906 1312 657 
Q 1506 409 1894 409 
Q 2359 409 2629 706 
Q 2900 1003 2900 1516 
L 2900 3500 
L 3475 3500 
L 3475 0 
L 2900 0 
L 2900 538 
Q 2691 219 2414 64 
Q 2138 -91 1772 -91 
Q 1169 -91 856 284 
Q 544 659 544 1381 
z
M 1991 3584 
L 1991 3584 
z
" id="DejaVuSans-75" transform="scale(0.015625)"/>
     </defs>
     <use xlink:href="#DejaVuSans-43"/>
     <use x="69.824219" xlink:href="#DejaVuSans-61"/>
     <use x="131.103516" xlink:href="#DejaVuSans-70"/>
     <use x="194.580078" xlink:href="#DejaVuSans-61"/>
     <use x="255.859375" xlink:href="#DejaVuSans-63"/>
     <use x="310.839844" xlink:href="#DejaVuSans-69"/>
     <use x="338.623047" xlink:href="#DejaVuSans-74"/>
     <use x="377.832031" xlink:href="#DejaVuSans-6f"/>
     <use x="439.013672" xlink:href="#DejaVuSans-72"/>
     <use x="480.126953" xlink:href="#DejaVuSans-20"/>
     <use x="511.914062" xlink:href="#DejaVuSans-63"/>
     <use x="566.894531" xlink:href="#DejaVuSans-68"/>
     <use x="630.273438" xlink:href="#DejaVuSans-61"/>
     <use x="691.552734" xlink:href="#DejaVuSans-72"/>
     <use x="730.916016" xlink:href="#DejaVuSans-67"/>
     <use x="794.392578" xlink:href="#DejaVuSans-69"/>
     <use x="822.175781" xlink:href="#DejaVuSans-6e"/>
     <use x="885.554688" xlink:href="#DejaVuSans-67"/>
     <use x="949.03125" xlink:href="#DejaVuSans-20"/>
     <use x="980.818359" xlink:href="#DejaVuSans-61"/>
     <use x="1042.097656" xlink:href="#DejaVuSans-6e"/>
     <use x="1105.476562" xlink:href="#DejaVuSans-64"/>
     <use x="1168.953125" xlink:href="#DejaVuSans-20"/>
     <use x="1200.740234" xlink:href="#DejaVuSans-64"/>
     <use x="1264.216797" xlink:href="#DejaVuSans-69"/>
     <use x="1292" xlink:href="#DejaVuSans-73"/>
     <use x="1344.099609" xlink:href="#DejaVuSans-63"/>
     <use x="1399.080078" xlink:href="#DejaVuSans-68"/>
     <use x="1462.458984" xlink:href="#DejaVuSans-61"/>
     <use x="1523.738281" xlink:href="#DejaVuSans-72"/>
     <use x="1563.101562" xlink:href="#DejaVuSans-67"/>
     <use x="1626.578125" xlink:href="#DejaVuSans-69"/>
     <use x="1654.361328" xlink:href="#DejaVuSans-6e"/>
     <use x="1717.740234" xlink:href="#DejaVuSans-67"/>
     <use x="1781.216797" xlink:href="#DejaVuSans-20"/>
     <use x="1813.003906" xlink:href="#DejaVuSans-70"/>
     <use x="1876.480469" xlink:href="#DejaVuSans-72"/>
     <use x="1915.34375" xlink:href="#DejaVuSans-6f"/>
     <use x="1976.525391" xlink:href="#DejaVuSans-63"/>
     <use x="2031.505859" xlink:href="#DejaVuSans-65"/>
     <use x="2093.029297" xlink:href="#DejaVuSans-73"/>
     <use x="2145.128906" xlink:href="#DejaVuSans-73"/>
     <use x="2197.228516" xlink:href="#DejaVuSans-20"/>
     <use x="2229.015625" xlink:href="#DejaVuSans-69"/>
     <use x="2256.798828" xlink:href="#DejaVuSans-6e"/>
     <use x="2320.177734" xlink:href="#DejaVuSans-20"/>
     <use x="2351.964844" xlink:href="#DejaVuSans-61"/>
     <use x="2413.244141" xlink:href="#DejaVuSans-6e"/>
     <use x="2476.623047" xlink:href="#DejaVuSans-20"/>
     <use x="2508.410156" xlink:href="#DejaVuSans-52"/>
     <use x="2572.892578" xlink:href="#DejaVuSans-43"/>
     <use x="2642.716797" xlink:href="#DejaVuSans-20"/>
     <use x="2674.503906" xlink:href="#DejaVuSans-63"/>
     <use x="2729.484375" xlink:href="#DejaVuSans-69"/>
     <use x="2757.267578" xlink:href="#DejaVuSans-72"/>
     <use x="2796.130859" xlink:href="#DejaVuSans-63"/>
     <use x="2851.111328" xlink:href="#DejaVuSans-75"/>
     <use x="2914.490234" xlink:href="#DejaVuSans-69"/>
     <use x="2942.273438" xlink:href="#DejaVuSans-74"/>
    </g>
   </g>
   <g id="legend_1">
    <g id="patch_7">
     <path d="M 967.723125 113.61375 
L 1028.4 113.61375 
Q 1030.8 113.61375 1030.8 111.21375 
L 1030.8 94.8 
Q 1030.8 92.4 1028.4 92.4 
L 967.723125 92.4 
Q 965.323125 92.4 965.323125 94.8 
L 965.323125 111.21375 
Q 965.323125 113.61375 967.723125 113.61375 
z
" style="fill:#ffffff;opacity:0.8;stroke:#cccccc;stroke-linejoin:miter;"/>
    </g>
    <g id="line2d_113">
     <path d="M 970.123125 102.118125 
L 994.123125 102.118125 
" style="fill:none;stroke:#bf00bf;stroke-linecap:square;stroke-opacity:0.5;stroke-width:1.5;"/>
    </g>
    <g id="line2d_114"/>
    <g id="text_18">
     <!-- V(t) -->
     <g transform="translate(1003.723125 106.318125)scale(0.12 -0.12)">
      <defs>
       <path d="M 1831 0 
L 50 4666 
L 709 4666 
L 2188 738 
L 3669 4666 
L 4325 4666 
L 2547 0 
L 1831 0 
z
" id="DejaVuSans-56" transform="scale(0.015625)"/>
       <path d="M 1984 4856 
Q 1566 4138 1362 3434 
Q 1159 2731 1159 2009 
Q 1159 1288 1364 580 
Q 1569 -128 1984 -844 
L 1484 -844 
Q 1016 -109 783 600 
Q 550 1309 550 2009 
Q 550 2706 781 3412 
Q 1013 4119 1484 4856 
L 1984 4856 
z
" id="DejaVuSans-28" transform="scale(0.015625)"/>
       <path d="M 513 4856 
L 1013 4856 
Q 1481 4119 1714 3412 
Q 1947 2706 1947 2009 
Q 1947 1309 1714 600 
Q 1481 -109 1013 -844 
L 513 -844 
Q 928 -128 1133 580 
Q 1338 1288 1338 2009 
Q 1338 2731 1133 3434 
Q 928 4138 513 4856 
z
" id="DejaVuSans-29" transform="scale(0.015625)"/>
      </defs>
      <use xlink:href="#DejaVuSans-56"/>
      <use x="68.408203" xlink:href="#DejaVuSans-28"/>
      <use x="107.421875" xlink:href="#DejaVuSans-74"/>
      <use x="146.630859" xlink:href="#DejaVuSans-29"/>
     </g>
    </g>
   </g>
  </g>
 </g>
 <defs>
  <clipPath id="p3a22d773e1">
   <rect height="554.4" width="892.8" x="144" y="86.4"/>
  </clipPath>
 </defs>
</svg>
